<?xml version="1.0" encoding="UTF-8"?>
<svg xmlns="http://www.w3.org/2000/svg" xmlns:xlink="http://www.w3.org/1999/xlink" width="90pt" height="91pt" viewBox="0 0 90 91" version="1.1">
<defs>
<clipPath id="clip1">
  <path d="M 0 0.570312 L 30 0.570312 L 30 31 L 0 31 Z M 0 0.570312 "/>
</clipPath>
<clipPath id="clip2">
  <path d="M 59 0.570312 L 90 0.570312 L 90 31 L 59 31 Z M 59 0.570312 "/>
</clipPath>
<clipPath id="clip3">
  <path d="M 0 0.570312 L 90 0.570312 L 90 91 L 0 91 Z M 0 0.570312 "/>
</clipPath>
<clipPath id="clip4">
  <path d="M 16 0.570312 L 65 0.570312 L 65 44 L 16 44 Z M 16 0.570312 "/>
</clipPath>
</defs>
<g id="surface1">
<g clip-path="url(#clip1)" clip-rule="nonzero">
<path style=" stroke:none;fill-rule:evenodd;fill:rgb(13.729858%,12.159729%,12.548828%);fill-opacity:1;" d="M 3.867188 4.867188 C 3.867188 12.035156 3.867188 19.199219 3.867188 26.367188 C 11.035156 26.367188 18.199219 26.367188 25.367188 26.367188 C 25.367188 19.199219 25.367188 12.035156 25.367188 4.867188 C 18.199219 4.867188 11.035156 4.867188 3.867188 4.867188 Z M 29.664062 0.570312 C 29.664062 10.601562 29.664062 20.632812 29.664062 30.664062 C 19.632812 30.664062 9.601562 30.664062 -0.429688 30.664062 C -0.144531 20.777344 -1.003906 9.742188 0 0.570312 C 9.886719 0.570312 19.777344 0.570312 29.664062 0.570312 "/>
</g>
<g clip-path="url(#clip2)" clip-rule="nonzero">
<path style=" stroke:none;fill-rule:evenodd;fill:rgb(13.729858%,12.159729%,12.548828%);fill-opacity:1;" d="M 64.058594 4.867188 C 64.058594 12.035156 64.058594 19.199219 64.058594 26.367188 C 71.226562 26.367188 78.390625 26.367188 85.554688 26.367188 C 85.554688 19.199219 85.554688 12.035156 85.554688 4.867188 C 78.390625 4.867188 71.226562 4.867188 64.058594 4.867188 Z M 89.855469 0.570312 C 89.855469 10.601562 89.855469 20.632812 89.855469 30.664062 C 79.824219 30.664062 69.792969 30.664062 59.761719 30.664062 C 60.046875 20.777344 59.1875 9.742188 60.191406 0.570312 C 70.082031 0.570312 79.96875 0.570312 89.855469 0.570312 "/>
</g>
<path style=" stroke:none;fill-rule:evenodd;fill:rgb(100%,100%,100%);fill-opacity:1;" d="M 8.167969 22.066406 C 12.46875 22.066406 16.769531 22.066406 21.066406 22.066406 C 21.066406 17.769531 21.066406 13.46875 21.066406 9.167969 C 16.769531 9.167969 12.46875 9.167969 8.167969 9.167969 C 8.167969 13.46875 8.167969 17.769531 8.167969 22.066406 Z M 25.367188 4.867188 C 25.367188 12.035156 25.367188 19.199219 25.367188 26.367188 C 18.199219 26.367188 11.035156 26.367188 3.867188 26.367188 C 3.867188 19.199219 3.867188 12.035156 3.867188 4.867188 C 11.035156 4.867188 18.199219 4.867188 25.367188 4.867188 "/>
<path style=" stroke:none;fill-rule:evenodd;fill:rgb(100%,100%,100%);fill-opacity:1;" d="M 68.359375 22.066406 C 72.660156 22.066406 76.960938 22.066406 81.257812 22.066406 C 81.257812 17.769531 81.257812 13.46875 81.257812 9.167969 C 76.960938 9.167969 72.660156 9.167969 68.359375 9.167969 C 68.359375 13.46875 68.359375 17.769531 68.359375 22.066406 Z M 85.554688 4.867188 C 85.554688 12.035156 85.554688 19.199219 85.554688 26.367188 C 78.390625 26.367188 71.226562 26.367188 64.058594 26.367188 C 64.058594 19.199219 64.058594 12.035156 64.058594 4.867188 C 71.226562 4.867188 78.390625 4.867188 85.554688 4.867188 "/>
<path style=" stroke:none;fill-rule:evenodd;fill:rgb(13.729858%,12.159729%,12.548828%);fill-opacity:1;" d="M 8.167969 9.167969 C 12.46875 9.167969 16.769531 9.167969 21.066406 9.167969 C 21.066406 13.46875 21.066406 17.769531 21.066406 22.066406 C 16.769531 22.066406 12.46875 22.066406 8.167969 22.066406 C 8.167969 17.769531 8.167969 13.46875 8.167969 9.167969 "/>
<path style=" stroke:none;fill-rule:evenodd;fill:rgb(13.729858%,12.159729%,12.548828%);fill-opacity:1;" d="M 68.359375 9.167969 C 72.660156 9.167969 76.960938 9.167969 81.257812 9.167969 C 81.257812 13.46875 81.257812 17.769531 81.257812 22.066406 C 76.960938 22.066406 72.660156 22.066406 68.359375 22.066406 C 68.359375 17.769531 68.359375 13.46875 68.359375 9.167969 "/>
<path style=" stroke:none;fill-rule:evenodd;fill:rgb(13.729858%,12.159729%,12.548828%);fill-opacity:1;" d="M 51.160156 43.5625 C 52.59375 43.5625 54.027344 43.5625 55.460938 43.5625 C 55.460938 44.996094 55.460938 46.429688 55.460938 47.863281 C 54.027344 47.863281 52.59375 47.863281 51.160156 47.863281 C 51.160156 46.429688 51.160156 44.996094 51.160156 43.5625 "/>
<path style=" stroke:none;fill-rule:evenodd;fill:rgb(13.729858%,12.159729%,12.548828%);fill-opacity:1;" d="M 76.960938 56.460938 C 79.824219 56.460938 82.691406 56.460938 85.554688 56.460938 C 85.554688 57.894531 85.554688 59.328125 85.554688 60.761719 C 86.988281 60.761719 88.421875 60.761719 89.855469 60.761719 C 89.855469 62.195312 89.855469 63.628906 89.855469 65.058594 C 85.554688 65.058594 81.257812 65.058594 76.960938 65.058594 C 76.960938 62.195312 76.960938 59.328125 76.960938 56.460938 "/>
<path style=" stroke:none;fill-rule:evenodd;fill:rgb(13.729858%,12.159729%,12.548828%);fill-opacity:1;" d="M 3.867188 65.058594 C 3.867188 72.226562 3.867188 79.390625 3.867188 86.558594 C 11.035156 86.558594 18.199219 86.558594 25.367188 86.558594 C 25.367188 79.390625 25.367188 72.226562 25.367188 65.058594 C 18.199219 65.058594 11.035156 65.058594 3.867188 65.058594 Z M 29.664062 60.761719 C 29.664062 70.792969 29.664062 80.824219 29.664062 90.855469 C 19.632812 90.855469 9.601562 90.855469 -0.429688 90.855469 C -0.144531 80.96875 -1.003906 69.933594 0 60.761719 C 9.886719 60.761719 19.777344 60.761719 29.664062 60.761719 "/>
<path style=" stroke:none;fill-rule:evenodd;fill:rgb(100%,100%,100%);fill-opacity:1;" d="M 8.167969 82.257812 C 12.46875 82.257812 16.769531 82.257812 21.066406 82.257812 C 21.066406 77.957031 21.066406 73.660156 21.066406 69.359375 C 16.769531 69.359375 12.46875 69.359375 8.167969 69.359375 C 8.167969 73.660156 8.167969 77.957031 8.167969 82.257812 Z M 25.367188 65.058594 C 25.367188 72.226562 25.367188 79.390625 25.367188 86.558594 C 18.199219 86.558594 11.035156 86.558594 3.867188 86.558594 C 3.867188 79.390625 3.867188 72.226562 3.867188 65.058594 C 11.035156 65.058594 18.199219 65.058594 25.367188 65.058594 "/>
<path style=" stroke:none;fill-rule:evenodd;fill:rgb(100%,100%,100%);fill-opacity:1;" d="M 59.761719 65.058594 C 61.195312 65.058594 62.628906 65.058594 64.058594 65.058594 C 64.058594 66.492188 64.058594 67.925781 64.058594 69.359375 C 62.628906 69.359375 61.195312 69.359375 59.761719 69.359375 C 59.761719 67.925781 59.761719 66.492188 59.761719 65.058594 "/>
<path style=" stroke:none;fill-rule:evenodd;fill:rgb(13.729858%,12.159729%,12.548828%);fill-opacity:1;" d="M 8.167969 69.359375 C 12.46875 69.359375 16.769531 69.359375 21.066406 69.359375 C 21.066406 73.660156 21.066406 77.957031 21.066406 82.257812 C 16.769531 82.257812 12.46875 82.257812 8.167969 82.257812 C 8.167969 77.957031 8.167969 73.660156 8.167969 69.359375 "/>
<path style=" stroke:none;fill-rule:evenodd;fill:rgb(13.729858%,12.159729%,12.548828%);fill-opacity:1;" d="M 85.554688 77.957031 C 84.125 77.957031 82.691406 77.957031 81.257812 77.957031 C 81.257812 79.390625 81.257812 80.824219 81.257812 82.257812 C 79.824219 82.257812 78.390625 82.257812 76.960938 82.257812 C 76.960938 79.390625 76.960938 76.527344 76.960938 73.660156 C 78.390625 73.660156 79.824219 73.660156 81.257812 73.660156 C 81.257812 72.226562 81.257812 70.792969 81.257812 69.359375 C 84.125 69.359375 86.988281 69.359375 89.855469 69.359375 C 89.855469 70.792969 89.855469 72.226562 89.855469 73.660156 C 88.566406 73.660156 87.277344 73.660156 85.988281 73.660156 C 85.007812 74.253906 85.828125 76.652344 85.554688 77.957031 "/>
<path style=" stroke:none;fill-rule:evenodd;fill:rgb(13.729858%,12.159729%,12.548828%);fill-opacity:1;" d="M 51.160156 77.957031 C 52.59375 77.957031 54.027344 77.957031 55.460938 77.957031 C 55.460938 79.390625 55.460938 80.824219 55.460938 82.257812 C 54.027344 82.257812 52.59375 82.257812 51.160156 82.257812 C 51.160156 80.824219 51.160156 79.390625 51.160156 77.957031 "/>
<path style=" stroke:none;fill-rule:evenodd;fill:rgb(13.729858%,12.159729%,12.548828%);fill-opacity:1;" d="M 51.160156 86.558594 C 52.59375 86.558594 54.027344 86.558594 55.460938 86.558594 C 55.460938 87.988281 55.460938 89.421875 55.460938 90.855469 C 54.027344 90.855469 52.59375 90.855469 51.160156 90.855469 C 51.160156 89.421875 51.160156 87.988281 51.160156 86.558594 "/>
<g clip-path="url(#clip3)" clip-rule="nonzero">
<path style=" stroke:none;fill-rule:evenodd;fill:rgb(100%,100%,100%);fill-opacity:1;" d="M 51.160156 90.855469 C 52.59375 90.855469 54.027344 90.855469 55.460938 90.855469 C 55.460938 89.421875 55.460938 87.988281 55.460938 86.558594 C 54.027344 86.558594 52.59375 86.558594 51.160156 86.558594 C 51.160156 87.988281 51.160156 89.421875 51.160156 90.855469 Z M 51.160156 82.257812 C 52.59375 82.257812 54.027344 82.257812 55.460938 82.257812 C 55.460938 80.824219 55.460938 79.390625 55.460938 77.957031 C 54.027344 77.957031 52.59375 77.957031 51.160156 77.957031 C 51.160156 79.390625 51.160156 80.824219 51.160156 82.257812 Z M 85.988281 73.660156 C 87.277344 73.660156 88.566406 73.660156 89.855469 73.660156 C 89.855469 72.226562 89.855469 70.792969 89.855469 69.359375 C 86.988281 69.359375 84.125 69.359375 81.257812 69.359375 C 81.257812 70.792969 81.257812 72.226562 81.257812 73.660156 C 79.824219 73.660156 78.390625 73.660156 76.960938 73.660156 C 76.960938 76.527344 76.960938 79.390625 76.960938 82.257812 C 78.390625 82.257812 79.824219 82.257812 81.257812 82.257812 C 81.257812 80.824219 81.257812 79.390625 81.257812 77.957031 C 82.691406 77.957031 84.125 77.957031 85.554688 77.957031 C 85.828125 76.652344 85.007812 74.253906 85.988281 73.660156 Z M 85.128906 82.257812 C 83.839844 82.257812 82.546875 82.257812 81.257812 82.257812 C 81.257812 85.125 81.257812 87.988281 81.257812 90.855469 C 84.125 90.855469 86.988281 90.855469 89.855469 90.855469 C 89.855469 89.421875 89.855469 87.988281 89.855469 86.558594 C 88.421875 86.558594 86.988281 86.558594 85.554688 86.558594 C 85.828125 85.25 85.007812 82.855469 85.988281 82.257812 C 87.277344 82.257812 88.566406 82.257812 89.855469 82.257812 C 89.855469 80.824219 89.855469 79.390625 89.855469 77.957031 C 88.421875 77.957031 86.988281 77.957031 85.554688 77.957031 C 85.285156 79.265625 86.105469 81.660156 85.128906 82.257812 Z M 0 60.761719 C -1.003906 69.933594 -0.144531 80.96875 -0.429688 90.855469 C 9.601562 90.855469 19.632812 90.855469 29.664062 90.855469 C 29.664062 80.824219 29.664062 70.792969 29.664062 60.761719 C 19.777344 60.761719 9.886719 60.761719 0 60.761719 Z M 76.960938 65.058594 C 81.257812 65.058594 85.554688 65.058594 89.855469 65.058594 C 89.855469 63.628906 89.855469 62.195312 89.855469 60.761719 C 88.421875 60.761719 86.988281 60.761719 85.554688 60.761719 C 85.554688 59.328125 85.554688 57.894531 85.554688 56.460938 C 82.691406 56.460938 79.824219 56.460938 76.960938 56.460938 C 76.960938 59.328125 76.960938 62.195312 76.960938 65.058594 Z M 51.160156 47.863281 C 52.59375 47.863281 54.027344 47.863281 55.460938 47.863281 C 55.460938 46.429688 55.460938 44.996094 55.460938 43.5625 C 54.027344 43.5625 52.59375 43.5625 51.160156 43.5625 C 51.160156 44.996094 51.160156 46.429688 51.160156 47.863281 Z M 80.828125 43.5625 C 76.671875 43.5625 72.515625 43.5625 68.359375 43.5625 C 68.359375 44.996094 68.359375 46.429688 68.359375 47.863281 C 72.660156 47.863281 76.960938 47.863281 81.257812 47.863281 C 81.257812 49.296875 81.257812 50.730469 81.257812 52.164062 C 82.691406 52.164062 84.125 52.164062 85.554688 52.164062 C 85.554688 50.730469 85.554688 49.296875 85.554688 47.863281 C 86.988281 47.863281 88.421875 47.863281 89.855469 47.863281 C 89.855469 44.996094 89.855469 42.132812 89.855469 39.265625 C 86.988281 39.265625 84.125 39.265625 81.257812 39.265625 C 81.257812 37.832031 81.257812 36.398438 81.257812 34.964844 C 79.824219 34.964844 78.390625 34.964844 76.960938 34.964844 C 76.960938 36.398438 76.960938 37.832031 76.960938 39.265625 C 80.679688 37.988281 82.519531 40.855469 80.828125 43.5625 Z M 33.964844 47.863281 C 33.964844 56.460938 33.964844 65.058594 33.964844 73.660156 C 35.398438 73.660156 36.832031 73.660156 38.265625 73.660156 C 38.535156 72.351562 37.714844 69.957031 38.695312 69.359375 C 41.417969 69.359375 44.140625 69.359375 46.863281 69.359375 C 46.59375 70.667969 47.414062 73.0625 46.433594 73.660156 C 43.710938 73.660156 40.988281 73.660156 38.265625 73.660156 C 37.996094 74.964844 38.816406 77.363281 37.835938 77.957031 C 36.542969 77.957031 35.253906 77.957031 33.964844 77.957031 C 33.964844 82.257812 33.964844 86.558594 33.964844 90.855469 C 35.398438 90.855469 36.832031 90.855469 38.265625 90.855469 C 38.546875 88.128906 37.699219 84.269531 38.695312 82.257812 C 41.417969 82.257812 44.140625 82.257812 46.863281 82.257812 C 46.863281 79.390625 46.863281 76.527344 46.863281 73.660156 C 48.296875 73.660156 49.730469 73.660156 51.160156 73.660156 C 51.429688 72.351562 50.609375 69.957031 51.59375 69.359375 C 52.882812 69.359375 54.171875 69.359375 55.460938 69.359375 C 55.460938 70.792969 55.460938 72.226562 55.460938 73.660156 C 56.769531 73.929688 59.164062 73.109375 59.761719 74.089844 C 59.761719 75.378906 59.761719 76.667969 59.761719 77.957031 C 62.628906 77.957031 65.492188 77.957031 68.359375 77.957031 C 68.359375 80.824219 68.359375 83.691406 68.359375 86.558594 C 66.925781 86.558594 65.492188 86.558594 64.058594 86.558594 C 64.058594 85.125 64.058594 83.691406 64.058594 82.257812 C 62.628906 82.257812 61.195312 82.257812 59.761719 82.257812 C 59.761719 85.125 59.761719 87.988281 59.761719 90.855469 C 62.628906 90.855469 65.492188 90.855469 68.359375 90.855469 C 68.628906 89.550781 67.808594 87.152344 68.789062 86.558594 C 70.082031 86.558594 71.367188 86.558594 72.660156 86.558594 C 72.660156 83.691406 72.660156 80.824219 72.660156 77.957031 C 71.351562 77.6875 68.957031 78.507812 68.359375 77.527344 C 68.359375 74.804688 68.359375 72.082031 68.359375 69.359375 C 69.792969 69.359375 71.226562 69.359375 72.660156 69.359375 C 72.660156 67.925781 72.660156 66.492188 72.660156 65.058594 C 71.351562 64.789062 68.957031 65.609375 68.359375 64.632812 C 68.359375 61.90625 68.359375 59.183594 68.359375 56.460938 C 69.792969 56.460938 71.226562 56.460938 72.660156 56.460938 C 72.660156 55.027344 72.660156 53.59375 72.660156 52.164062 C 71.226562 52.164062 69.792969 52.164062 68.359375 52.164062 C 68.359375 53.59375 68.359375 55.027344 68.359375 56.460938 C 66.925781 56.460938 65.492188 56.460938 64.058594 56.460938 C 63.789062 57.769531 64.609375 60.164062 63.632812 60.761719 C 59.996094 61.671875 59.148438 59.800781 59.761719 56.460938 C 61.195312 56.460938 62.628906 56.460938 64.058594 56.460938 C 64.058594 53.59375 64.058594 50.730469 64.058594 47.863281 C 62.628906 47.863281 61.195312 47.863281 59.761719 47.863281 C 59.761719 50.730469 59.761719 53.59375 59.761719 56.460938 C 58.328125 56.460938 56.894531 56.460938 55.460938 56.460938 C 55.460938 59.328125 55.460938 62.195312 55.460938 65.058594 C 54.15625 64.789062 51.757812 65.609375 51.160156 64.632812 C 51.160156 61.90625 51.160156 59.183594 51.160156 56.460938 C 52.59375 56.460938 54.027344 56.460938 55.460938 56.460938 C 55.460938 55.027344 55.460938 53.59375 55.460938 52.164062 C 54.027344 52.164062 52.59375 52.164062 51.160156 52.164062 C 51.160156 53.59375 51.160156 55.027344 51.160156 56.460938 C 49.730469 56.460938 48.296875 56.460938 46.863281 56.460938 C 46.863281 59.328125 46.863281 62.195312 46.863281 65.058594 C 45.429688 65.058594 43.996094 65.058594 42.5625 65.058594 C 42.5625 63.628906 42.5625 62.195312 42.5625 60.761719 C 41.257812 60.492188 38.859375 61.3125 38.265625 60.332031 C 38.53125 59.164062 37.71875 56.917969 38.695312 56.460938 C 41.417969 56.460938 44.140625 56.460938 46.863281 56.460938 C 46.863281 53.59375 46.863281 50.730469 46.863281 47.863281 C 45.429688 47.863281 43.996094 47.863281 42.5625 47.863281 C 42.292969 49.167969 43.113281 51.566406 42.132812 52.164062 C 40.84375 52.164062 39.554688 52.164062 38.265625 52.164062 C 38.265625 50.730469 38.265625 49.296875 38.265625 47.863281 C 36.957031 47.59375 34.5625 48.414062 33.964844 47.433594 C 33.964844 46.144531 33.964844 44.851562 33.964844 43.5625 C 31.097656 43.5625 28.230469 43.5625 25.367188 43.5625 C 25.097656 44.871094 25.914062 47.265625 24.9375 47.863281 C 23.648438 47.863281 22.355469 47.863281 21.066406 47.863281 C 21.066406 46.429688 21.066406 44.996094 21.066406 43.5625 C 19.632812 43.5625 18.199219 43.5625 16.769531 43.5625 C 16.496094 44.871094 17.316406 47.265625 16.335938 47.863281 C 15.171875 47.597656 12.925781 48.410156 12.46875 47.433594 C 12.46875 43.277344 12.46875 39.121094 12.46875 34.964844 C 8.167969 34.964844 3.867188 34.964844 -0.429688 34.964844 C -0.429688 37.832031 -0.429688 40.699219 -0.429688 43.5625 C 2.4375 43.5625 5.300781 43.5625 8.167969 43.5625 C 8.167969 46.429688 8.167969 49.296875 8.167969 52.164062 C 6.734375 52.164062 5.300781 52.164062 3.867188 52.164062 C 3.867188 50.730469 3.867188 49.296875 3.867188 47.863281 C 2.4375 47.863281 1.003906 47.863281 -0.429688 47.863281 C -0.429688 50.730469 -0.429688 53.59375 -0.429688 56.460938 C 5.300781 56.460938 11.035156 56.460938 16.769531 56.460938 C 17.039062 55.15625 16.21875 52.757812 17.199219 52.164062 C 19.921875 52.164062 22.644531 52.164062 25.367188 52.164062 C 25.367188 53.59375 25.367188 55.027344 25.367188 56.460938 C 26.800781 56.460938 28.230469 56.460938 29.664062 56.460938 C 29.664062 55.027344 29.664062 53.59375 29.664062 52.164062 C 28.359375 51.894531 25.964844 52.714844 25.367188 51.730469 C 23.585938 45.792969 30.34375 48.398438 33.964844 47.863281 Z M 60.191406 0.570312 C 59.1875 9.742188 60.046875 20.777344 59.761719 30.664062 C 69.792969 30.664062 79.824219 30.664062 89.855469 30.664062 C 89.855469 20.632812 89.855469 10.601562 89.855469 0.570312 C 79.96875 0.570312 70.082031 0.570312 60.191406 0.570312 Z M 0 0.570312 C -1.003906 9.742188 -0.144531 20.777344 -0.429688 30.664062 C 9.601562 30.664062 19.632812 30.664062 29.664062 30.664062 C 29.664062 20.632812 29.664062 10.601562 29.664062 0.570312 C 19.777344 0.570312 9.886719 0.570312 0 0.570312 Z M 51.160156 30.664062 C 49.730469 30.664062 48.296875 30.664062 46.863281 30.664062 C 46.59375 31.972656 47.414062 34.367188 46.433594 34.964844 C 45.144531 34.964844 43.851562 34.964844 42.5625 34.964844 C 42.5625 33.53125 42.5625 32.097656 42.5625 30.664062 C 43.996094 30.664062 45.429688 30.664062 46.863281 30.664062 C 46.863281 29.230469 46.863281 27.800781 46.863281 26.367188 C 45.429688 26.367188 43.996094 26.367188 42.5625 26.367188 C 42.292969 27.671875 43.113281 30.070312 42.132812 30.664062 C 40.84375 30.664062 39.554688 30.664062 38.265625 30.664062 C 38.265625 29.230469 38.265625 27.800781 38.265625 26.367188 C 36.832031 26.367188 35.398438 26.367188 33.964844 26.367188 C 33.964844 29.230469 33.964844 32.097656 33.964844 34.964844 C 28.230469 34.964844 22.5 34.964844 16.769531 34.964844 C 16.769531 36.398438 16.769531 37.832031 16.769531 39.265625 C 23.933594 39.265625 31.097656 39.265625 38.265625 39.265625 C 38.265625 40.699219 38.265625 42.132812 38.265625 43.5625 C 41.132812 43.5625 43.996094 43.5625 46.863281 43.5625 C 46.863281 42.132812 46.863281 40.699219 46.863281 39.265625 C 48.296875 39.265625 49.730469 39.265625 51.160156 39.265625 C 51.429688 37.957031 50.609375 35.5625 51.59375 34.964844 C 52.882812 34.964844 54.171875 34.964844 55.460938 34.964844 C 55.460938 36.398438 55.460938 37.832031 55.460938 39.265625 C 56.769531 39.535156 59.164062 38.714844 59.761719 39.695312 C 59.761719 40.984375 59.761719 42.273438 59.761719 43.5625 C 61.195312 43.5625 62.628906 43.5625 64.058594 43.5625 C 64.058594 40.699219 64.058594 37.832031 64.058594 34.964844 C 61.195312 34.964844 58.328125 34.964844 55.460938 34.964844 C 55.460938 29.230469 55.460938 23.5 55.460938 17.769531 C 54.15625 17.496094 51.757812 18.316406 51.160156 17.335938 C 51.160156 16.046875 51.160156 14.757812 51.160156 13.46875 C 52.59375 13.46875 54.027344 13.46875 55.460938 13.46875 C 55.460938 12.035156 55.460938 10.601562 55.460938 9.167969 C 54.15625 8.898438 51.757812 9.71875 51.160156 8.738281 C 51.160156 7.449219 51.160156 6.160156 51.160156 4.867188 C 52.59375 4.867188 54.027344 4.867188 55.460938 4.867188 C 55.460938 3.4375 55.460938 2.003906 55.460938 0.570312 C 52.59375 0.570312 49.730469 0.570312 46.863281 0.570312 C 46.59375 1.878906 47.414062 4.273438 46.433594 4.867188 C 45.144531 4.867188 43.851562 4.867188 42.5625 4.867188 C 42.5625 3.4375 42.5625 2.003906 42.5625 0.570312 C 41.132812 0.570312 39.699219 0.570312 38.265625 0.570312 C 38.265625 3.4375 38.265625 6.300781 38.265625 9.167969 C 36.832031 9.167969 35.398438 9.167969 33.964844 9.167969 C 33.964844 10.601562 33.964844 12.035156 33.964844 13.46875 C 35.398438 13.46875 36.832031 13.46875 38.265625 13.46875 C 38.265625 14.902344 38.265625 16.335938 38.265625 17.769531 C 39.699219 17.769531 41.132812 17.769531 42.5625 17.769531 C 42.5625 14.902344 42.5625 12.035156 42.5625 9.167969 C 43.871094 9.4375 46.269531 8.617188 46.863281 9.597656 C 46.863281 12.320312 46.863281 15.042969 46.863281 17.769531 C 45.429688 17.769531 43.996094 17.769531 42.5625 17.769531 C 42.5625 19.199219 42.5625 20.632812 42.5625 22.066406 C 43.996094 22.066406 45.429688 22.066406 46.863281 22.066406 C 47.132812 20.761719 46.3125 18.363281 47.292969 17.769531 C 54.378906 16.273438 49.921875 26.316406 51.160156 30.664062 Z M -19.347656 -18.777344 C 23.503906 -18.777344 66.351562 -18.777344 109.203125 -18.777344 C 109.203125 24.21875 109.203125 67.210938 109.203125 110.203125 C 66.210938 110.203125 23.214844 110.203125 -19.777344 110.203125 C -19.777344 67.640625 -19.777344 25.078125 -19.777344 -17.488281 C -19.816406 -18.097656 -19.847656 -18.703125 -19.347656 -18.777344 "/>
</g>
<g clip-path="url(#clip4)" clip-rule="nonzero">
<path style=" stroke:none;fill-rule:evenodd;fill:rgb(13.729858%,12.159729%,12.548828%);fill-opacity:1;" d="M 47.292969 17.769531 C 46.3125 18.363281 47.132812 20.761719 46.863281 22.066406 C 45.429688 22.066406 43.996094 22.066406 42.5625 22.066406 C 42.5625 20.632812 42.5625 19.199219 42.5625 17.769531 C 43.996094 17.769531 45.429688 17.769531 46.863281 17.769531 C 46.863281 15.042969 46.863281 12.320312 46.863281 9.597656 C 46.269531 8.617188 43.871094 9.4375 42.5625 9.167969 C 42.5625 12.035156 42.5625 14.902344 42.5625 17.769531 C 41.132812 17.769531 39.699219 17.769531 38.265625 17.769531 C 38.265625 16.335938 38.265625 14.902344 38.265625 13.46875 C 36.832031 13.46875 35.398438 13.46875 33.964844 13.46875 C 33.964844 12.035156 33.964844 10.601562 33.964844 9.167969 C 35.398438 9.167969 36.832031 9.167969 38.265625 9.167969 C 38.265625 6.300781 38.265625 3.4375 38.265625 0.570312 C 39.699219 0.570312 41.132812 0.570312 42.5625 0.570312 C 42.5625 2.003906 42.5625 3.4375 42.5625 4.867188 C 43.851562 4.867188 45.144531 4.867188 46.433594 4.867188 C 47.414062 4.273438 46.59375 1.878906 46.863281 0.570312 C 49.730469 0.570312 52.59375 0.570312 55.460938 0.570312 C 55.460938 2.003906 55.460938 3.4375 55.460938 4.867188 C 54.027344 4.867188 52.59375 4.867188 51.160156 4.867188 C 51.160156 6.160156 51.160156 7.449219 51.160156 8.738281 C 51.757812 9.71875 54.15625 8.898438 55.460938 9.167969 C 55.460938 10.601562 55.460938 12.035156 55.460938 13.46875 C 54.027344 13.46875 52.59375 13.46875 51.160156 13.46875 C 51.160156 14.757812 51.160156 16.046875 51.160156 17.335938 C 51.757812 18.316406 54.15625 17.496094 55.460938 17.769531 C 55.460938 23.5 55.460938 29.230469 55.460938 34.964844 C 58.328125 34.964844 61.195312 34.964844 64.058594 34.964844 C 64.058594 37.832031 64.058594 40.699219 64.058594 43.5625 C 62.628906 43.5625 61.195312 43.5625 59.761719 43.5625 C 59.761719 42.273438 59.761719 40.984375 59.761719 39.695312 C 59.164062 38.714844 56.769531 39.535156 55.460938 39.265625 C 55.460938 37.832031 55.460938 36.398438 55.460938 34.964844 C 54.171875 34.964844 52.882812 34.964844 51.59375 34.964844 C 50.609375 35.5625 51.429688 37.957031 51.160156 39.265625 C 49.730469 39.265625 48.296875 39.265625 46.863281 39.265625 C 46.863281 40.699219 46.863281 42.132812 46.863281 43.5625 C 43.996094 43.5625 41.132812 43.5625 38.265625 43.5625 C 38.265625 42.132812 38.265625 40.699219 38.265625 39.265625 C 31.097656 39.265625 23.933594 39.265625 16.769531 39.265625 C 16.769531 37.832031 16.769531 36.398438 16.769531 34.964844 C 22.5 34.964844 28.230469 34.964844 33.964844 34.964844 C 33.964844 32.097656 33.964844 29.230469 33.964844 26.367188 C 35.398438 26.367188 36.832031 26.367188 38.265625 26.367188 C 38.265625 27.800781 38.265625 29.230469 38.265625 30.664062 C 39.554688 30.664062 40.84375 30.664062 42.132812 30.664062 C 43.113281 30.070312 42.292969 27.671875 42.5625 26.367188 C 43.996094 26.367188 45.429688 26.367188 46.863281 26.367188 C 46.863281 27.800781 46.863281 29.230469 46.863281 30.664062 C 45.429688 30.664062 43.996094 30.664062 42.5625 30.664062 C 42.5625 32.097656 42.5625 33.53125 42.5625 34.964844 C 43.851562 34.964844 45.144531 34.964844 46.433594 34.964844 C 47.414062 34.367188 46.59375 31.972656 46.863281 30.664062 C 48.296875 30.664062 49.730469 30.664062 51.160156 30.664062 C 49.921875 26.316406 54.378906 16.273438 47.292969 17.769531 "/>
</g>
<path style=" stroke:none;fill-rule:evenodd;fill:rgb(13.729858%,12.159729%,12.548828%);fill-opacity:1;" d="M 59.761719 69.359375 C 61.195312 69.359375 62.628906 69.359375 64.058594 69.359375 C 64.058594 67.925781 64.058594 66.492188 64.058594 65.058594 C 62.628906 65.058594 61.195312 65.058594 59.761719 65.058594 C 59.761719 66.492188 59.761719 67.925781 59.761719 69.359375 Z M 25.367188 51.730469 C 25.964844 52.714844 28.359375 51.894531 29.664062 52.164062 C 29.664062 53.59375 29.664062 55.027344 29.664062 56.460938 C 28.230469 56.460938 26.800781 56.460938 25.367188 56.460938 C 25.367188 55.027344 25.367188 53.59375 25.367188 52.164062 C 22.644531 52.164062 19.921875 52.164062 17.199219 52.164062 C 16.21875 52.757812 17.039062 55.15625 16.769531 56.460938 C 11.035156 56.460938 5.300781 56.460938 -0.429688 56.460938 C -0.429688 53.59375 -0.429688 50.730469 -0.429688 47.863281 C 1.003906 47.863281 2.4375 47.863281 3.867188 47.863281 C 3.867188 49.296875 3.867188 50.730469 3.867188 52.164062 C 5.300781 52.164062 6.734375 52.164062 8.167969 52.164062 C 8.167969 49.296875 8.167969 46.429688 8.167969 43.5625 C 5.300781 43.5625 2.4375 43.5625 -0.429688 43.5625 C -0.429688 40.699219 -0.429688 37.832031 -0.429688 34.964844 C 3.867188 34.964844 8.167969 34.964844 12.46875 34.964844 C 12.46875 39.121094 12.46875 43.277344 12.46875 47.433594 C 12.925781 48.410156 15.171875 47.597656 16.335938 47.863281 C 17.316406 47.265625 16.496094 44.871094 16.769531 43.5625 C 18.199219 43.5625 19.632812 43.5625 21.066406 43.5625 C 21.066406 44.996094 21.066406 46.429688 21.066406 47.863281 C 22.355469 47.863281 23.648438 47.863281 24.9375 47.863281 C 25.914062 47.265625 25.097656 44.871094 25.367188 43.5625 C 28.230469 43.5625 31.097656 43.5625 33.964844 43.5625 C 33.964844 44.851562 33.964844 46.144531 33.964844 47.433594 C 34.5625 48.414062 36.957031 47.59375 38.265625 47.863281 C 38.265625 49.296875 38.265625 50.730469 38.265625 52.164062 C 39.554688 52.164062 40.84375 52.164062 42.132812 52.164062 C 43.113281 51.566406 42.292969 49.167969 42.5625 47.863281 C 43.996094 47.863281 45.429688 47.863281 46.863281 47.863281 C 46.863281 50.730469 46.863281 53.59375 46.863281 56.460938 C 44.140625 56.460938 41.417969 56.460938 38.695312 56.460938 C 37.71875 56.917969 38.53125 59.164062 38.265625 60.332031 C 38.859375 61.3125 41.257812 60.492188 42.5625 60.761719 C 42.5625 62.195312 42.5625 63.628906 42.5625 65.058594 C 43.996094 65.058594 45.429688 65.058594 46.863281 65.058594 C 46.863281 62.195312 46.863281 59.328125 46.863281 56.460938 C 48.296875 56.460938 49.730469 56.460938 51.160156 56.460938 C 51.160156 55.027344 51.160156 53.59375 51.160156 52.164062 C 52.59375 52.164062 54.027344 52.164062 55.460938 52.164062 C 55.460938 53.59375 55.460938 55.027344 55.460938 56.460938 C 54.027344 56.460938 52.59375 56.460938 51.160156 56.460938 C 51.160156 59.183594 51.160156 61.90625 51.160156 64.632812 C 51.757812 65.609375 54.15625 64.789062 55.460938 65.058594 C 55.460938 62.195312 55.460938 59.328125 55.460938 56.460938 C 56.894531 56.460938 58.328125 56.460938 59.761719 56.460938 C 59.761719 53.59375 59.761719 50.730469 59.761719 47.863281 C 61.195312 47.863281 62.628906 47.863281 64.058594 47.863281 C 64.058594 50.730469 64.058594 53.59375 64.058594 56.460938 C 62.628906 56.460938 61.195312 56.460938 59.761719 56.460938 C 59.148438 59.800781 59.996094 61.671875 63.632812 60.761719 C 64.609375 60.164062 63.789062 57.769531 64.058594 56.460938 C 65.492188 56.460938 66.925781 56.460938 68.359375 56.460938 C 68.359375 55.027344 68.359375 53.59375 68.359375 52.164062 C 69.792969 52.164062 71.226562 52.164062 72.660156 52.164062 C 72.660156 53.59375 72.660156 55.027344 72.660156 56.460938 C 71.226562 56.460938 69.792969 56.460938 68.359375 56.460938 C 68.359375 59.183594 68.359375 61.90625 68.359375 64.632812 C 68.957031 65.609375 71.351562 64.789062 72.660156 65.058594 C 72.660156 66.492188 72.660156 67.925781 72.660156 69.359375 C 71.226562 69.359375 69.792969 69.359375 68.359375 69.359375 C 68.359375 72.082031 68.359375 74.804688 68.359375 77.527344 C 68.957031 78.507812 71.351562 77.6875 72.660156 77.957031 C 72.660156 80.824219 72.660156 83.691406 72.660156 86.558594 C 71.367188 86.558594 70.082031 86.558594 68.789062 86.558594 C 67.808594 87.152344 68.628906 89.550781 68.359375 90.855469 C 65.492188 90.855469 62.628906 90.855469 59.761719 90.855469 C 59.761719 87.988281 59.761719 85.125 59.761719 82.257812 C 61.195312 82.257812 62.628906 82.257812 64.058594 82.257812 C 64.058594 83.691406 64.058594 85.125 64.058594 86.558594 C 65.492188 86.558594 66.925781 86.558594 68.359375 86.558594 C 68.359375 83.691406 68.359375 80.824219 68.359375 77.957031 C 65.492188 77.957031 62.628906 77.957031 59.761719 77.957031 C 59.761719 76.667969 59.761719 75.378906 59.761719 74.089844 C 59.164062 73.109375 56.769531 73.929688 55.460938 73.660156 C 55.460938 72.226562 55.460938 70.792969 55.460938 69.359375 C 54.171875 69.359375 52.882812 69.359375 51.59375 69.359375 C 50.609375 69.957031 51.429688 72.351562 51.160156 73.660156 C 49.730469 73.660156 48.296875 73.660156 46.863281 73.660156 C 46.863281 76.527344 46.863281 79.390625 46.863281 82.257812 C 44.140625 82.257812 41.417969 82.257812 38.695312 82.257812 C 37.699219 84.269531 38.546875 88.128906 38.265625 90.855469 C 36.832031 90.855469 35.398438 90.855469 33.964844 90.855469 C 33.964844 86.558594 33.964844 82.257812 33.964844 77.957031 C 35.253906 77.957031 36.542969 77.957031 37.835938 77.957031 C 38.816406 77.363281 37.996094 74.964844 38.265625 73.660156 C 40.988281 73.660156 43.710938 73.660156 46.433594 73.660156 C 47.414062 73.0625 46.59375 70.667969 46.863281 69.359375 C 44.140625 69.359375 41.417969 69.359375 38.695312 69.359375 C 37.714844 69.957031 38.535156 72.351562 38.265625 73.660156 C 36.832031 73.660156 35.398438 73.660156 33.964844 73.660156 C 33.964844 65.058594 33.964844 56.460938 33.964844 47.863281 C 30.34375 48.398438 23.585938 45.792969 25.367188 51.730469 "/>
<path style=" stroke:none;fill-rule:evenodd;fill:rgb(13.729858%,12.159729%,12.548828%);fill-opacity:1;" d="M 76.960938 39.265625 C 76.960938 37.832031 76.960938 36.398438 76.960938 34.964844 C 78.390625 34.964844 79.824219 34.964844 81.257812 34.964844 C 81.257812 36.398438 81.257812 37.832031 81.257812 39.265625 C 84.125 39.265625 86.988281 39.265625 89.855469 39.265625 C 89.855469 42.132812 89.855469 44.996094 89.855469 47.863281 C 88.421875 47.863281 86.988281 47.863281 85.554688 47.863281 C 85.554688 49.296875 85.554688 50.730469 85.554688 52.164062 C 84.125 52.164062 82.691406 52.164062 81.257812 52.164062 C 81.257812 50.730469 81.257812 49.296875 81.257812 47.863281 C 76.960938 47.863281 72.660156 47.863281 68.359375 47.863281 C 68.359375 46.429688 68.359375 44.996094 68.359375 43.5625 C 72.515625 43.5625 76.671875 43.5625 80.828125 43.5625 C 82.519531 40.855469 80.679688 37.988281 76.960938 39.265625 "/>
<path style=" stroke:none;fill-rule:evenodd;fill:rgb(13.729858%,12.159729%,12.548828%);fill-opacity:1;" d="M 85.554688 77.957031 C 86.988281 77.957031 88.421875 77.957031 89.855469 77.957031 C 89.855469 79.390625 89.855469 80.824219 89.855469 82.257812 C 88.566406 82.257812 87.277344 82.257812 85.988281 82.257812 C 85.007812 82.855469 85.828125 85.25 85.554688 86.558594 C 86.988281 86.558594 88.421875 86.558594 89.855469 86.558594 C 89.855469 87.988281 89.855469 89.421875 89.855469 90.855469 C 86.988281 90.855469 84.125 90.855469 81.257812 90.855469 C 81.257812 87.988281 81.257812 85.125 81.257812 82.257812 C 82.546875 82.257812 83.839844 82.257812 85.128906 82.257812 C 86.105469 81.660156 85.285156 79.265625 85.554688 77.957031 "/>
</g>
</svg>
