<?xml version="1.0" encoding="UTF-8"?>
<svg xmlns="http://www.w3.org/2000/svg" xmlns:xlink="http://www.w3.org/1999/xlink" width="221pt" height="216pt" viewBox="0 0 221 216" version="1.1">
<g id="surface1">
<path style="fill:none;stroke-width:30;stroke-linecap:butt;stroke-linejoin:miter;stroke:rgb(78.514099%,9.812927%,11.376953%);stroke-opacity:1;stroke-miterlimit:10;" d="M 1927.109375 2010.585938 C 1927.109375 2010.585938 1667.1875 1476.640625 1470.351562 1437.539062 C 1279.375 1399.609375 1198.710938 1583.007812 1037.734375 1609.609375 C 735.585938 1659.492188 483.164062 1467.578125 483.164062 1083.828125 C 483.164062 700.078125 735.585938 508.164062 1037.734375 558.085938 C 1198.710938 584.648438 1279.375 768.085938 1470.351562 730.117188 C 1667.1875 691.015625 1927.109375 157.070312 1927.109375 157.070312 " transform="matrix(0.1,0,0,-0.1,0,216)"/>
<path style="fill:none;stroke-width:20;stroke-linecap:butt;stroke-linejoin:miter;stroke:rgb(13.719177%,12.156677%,12.547302%);stroke-opacity:1;stroke-miterlimit:4;" d="M 1136.210938 1990.078125 L 1136.210938 171.328125 " transform="matrix(0.1,0,0,-0.1,0,216)"/>
<path style=" stroke:none;fill-rule:nonzero;fill:rgb(13.719177%,12.156677%,12.547302%);fill-opacity:1;" d="M 116.027344 10.167969 C 117.160156 13.972656 118.214844 16.453125 119.425781 19.507812 L 107.816406 19.46875 C 108.339844 18.382812 110.121094 13.949219 111.285156 10.160156 C 112.535156 6.089844 113.378906 2.402344 113.691406 0.0117188 C 113.980469 2.410156 114.816406 6.105469 116.027344 10.167969 "/>
<path style=" stroke:none;fill-rule:nonzero;fill:rgb(13.719177%,12.156677%,12.547302%);fill-opacity:1;" d="M 111.214844 204.84375 C 110.082031 201.039062 109.027344 198.5625 107.816406 195.507812 L 119.425781 195.546875 C 118.902344 196.632812 117.121094 201.0625 115.957031 204.851562 C 114.707031 208.921875 113.863281 212.609375 113.550781 215 C 113.261719 212.601562 112.425781 208.90625 111.214844 204.84375 "/>
<path style="fill:none;stroke-width:20;stroke-linecap:butt;stroke-linejoin:miter;stroke:rgb(13.719177%,12.156677%,12.547302%);stroke-opacity:1;stroke-miterlimit:4;" d="M 169.765625 1084.921875 L 2048.515625 1084.921875 " transform="matrix(0.1,0,0,-0.1,0,216)"/>
<path style=" stroke:none;fill-rule:nonzero;fill:rgb(13.719177%,12.156677%,12.547302%);fill-opacity:1;" d="M 10.15625 105.101562 C 13.960938 103.96875 16.4375 102.914062 19.492188 101.703125 L 19.453125 113.3125 C 18.367188 112.789062 13.9375 111.007812 10.148438 109.84375 C 6.078125 108.59375 2.390625 107.75 0 107.4375 C 2.398438 107.148438 6.09375 106.3125 10.15625 105.101562 "/>
<path style=" stroke:none;fill-rule:nonzero;fill:rgb(13.719177%,12.156677%,12.547302%);fill-opacity:1;" d="M 210.828125 109.914062 C 207.023438 111.046875 204.546875 112.101562 201.492188 113.3125 L 201.53125 101.703125 C 202.617188 102.226562 207.046875 104.007812 210.835938 105.171875 C 214.90625 106.421875 218.59375 107.265625 220.984375 107.578125 C 218.585938 107.867188 214.890625 108.703125 210.828125 109.914062 "/>
</g>
</svg>
