<?xml version="1.0" encoding="UTF-8"?>
<svg xmlns="http://www.w3.org/2000/svg" xmlns:xlink="http://www.w3.org/1999/xlink" width="254pt" height="254pt" viewBox="0 0 254 254" version="1.1">
<defs>
<clipPath id="clip1">
  <path d="M 161 0.945312 L 253.972656 0.945312 L 253.972656 154 L 161 154 Z M 161 0.945312 "/>
</clipPath>
</defs>
<g id="surface1">
<path style=" stroke:none;fill-rule:nonzero;fill:rgb(83.575439%,89.570618%,96.498108%);fill-opacity:1;" d="M 6.046875 43.351562 L 29.273438 130.898438 L 196.707031 147.730469 L 228.414062 31.796875 L 6.046875 43.351562 "/>
<path style=" stroke:none;fill-rule:nonzero;fill:rgb(46.586609%,45.614624%,45.855713%);fill-opacity:1;" d="M 32.964844 126.570312 L 193.242188 142.683594 L 222.199219 36.800781 L 12.042969 47.71875 Z M 200.175781 152.773438 L 25.585938 135.226562 L 0.0507812 38.980469 L 234.632812 26.792969 L 200.175781 152.773438 "/>
<path style=" stroke:none;fill-rule:nonzero;fill:rgb(46.586609%,45.614624%,45.855713%);fill-opacity:1;" d="M 53.179688 137.894531 C 50.960938 137.894531 48.992188 136.308594 48.585938 134.046875 L 32.136719 42.582031 C 31.679688 40.042969 33.367188 37.609375 35.910156 37.15625 C 38.441406 36.691406 40.882812 38.386719 41.339844 40.929688 L 57.785156 132.390625 C 58.242188 134.933594 56.554688 137.363281 54.011719 137.820312 C 53.734375 137.871094 53.453125 137.894531 53.179688 137.894531 "/>
<path style=" stroke:none;fill-rule:nonzero;fill:rgb(46.586609%,45.614624%,45.855713%);fill-opacity:1;" d="M 109.910156 143.738281 C 107.328125 143.738281 105.234375 141.644531 105.234375 139.0625 L 105.234375 37.953125 C 105.234375 35.371094 107.328125 33.277344 109.910156 33.277344 C 112.492188 33.277344 114.585938 35.371094 114.585938 37.953125 L 114.585938 139.0625 C 114.585938 141.644531 112.492188 143.738281 109.910156 143.738281 "/>
<path style=" stroke:none;fill-rule:nonzero;fill:rgb(46.586609%,45.614624%,45.855713%);fill-opacity:1;" d="M 171.390625 150.535156 C 171.117188 150.535156 170.839844 150.511719 170.5625 150.460938 C 168.019531 150.003906 166.328125 147.574219 166.78125 145.035156 L 186.863281 32.894531 C 187.316406 30.351562 189.753906 28.660156 192.285156 29.117188 C 194.828125 29.570312 196.519531 32 196.066406 34.539062 L 175.984375 146.683594 C 175.582031 148.945312 173.609375 150.535156 171.390625 150.535156 "/>
<path style=" stroke:none;fill-rule:nonzero;fill:rgb(46.586609%,45.614624%,45.855713%);fill-opacity:1;" d="M 139.234375 146.769531 C 139.078125 146.769531 138.921875 146.761719 138.761719 146.746094 C 136.195312 146.488281 134.320312 144.199219 134.578125 141.628906 L 145.195312 35.515625 C 145.453125 32.945312 147.753906 31.078125 150.3125 31.328125 C 152.882812 31.585938 154.757812 33.875 154.5 36.445312 L 143.882812 142.5625 C 143.636719 144.972656 141.605469 146.769531 139.234375 146.769531 "/>
<path style=" stroke:none;fill-rule:nonzero;fill:rgb(46.586609%,45.614624%,45.855713%);fill-opacity:1;" d="M 80.914062 140.683594 C 78.574219 140.683594 76.554688 138.929688 76.277344 136.550781 L 65.070312 40.585938 C 64.773438 38.019531 66.605469 35.699219 69.171875 35.398438 C 71.742188 35.09375 74.058594 36.9375 74.355469 39.5 L 85.5625 135.464844 C 85.859375 138.03125 84.027344 140.351562 81.460938 140.652344 C 81.277344 140.671875 81.09375 140.683594 80.914062 140.683594 "/>
<path style=" stroke:none;fill-rule:nonzero;fill:rgb(46.586609%,45.614624%,45.855713%);fill-opacity:1;" d="M 230.285156 218.785156 L 38.933594 218.785156 C 36.351562 218.785156 34.261719 216.691406 34.261719 214.109375 C 34.261719 211.527344 36.351562 209.433594 38.933594 209.433594 L 230.285156 209.433594 C 232.867188 209.433594 234.960938 211.527344 234.960938 214.109375 C 234.960938 216.691406 232.867188 218.785156 230.285156 218.785156 "/>
<path style=" stroke:none;fill-rule:nonzero;fill:rgb(78.431702%,78.039551%,78.137207%);fill-opacity:1;" d="M 38.933594 208.433594 L 230.285156 209.433594 L 38.933594 210.433594 Z M 38.933594 208.433594 "/>
<path style=" stroke:none;fill-rule:nonzero;fill:rgb(46.586609%,45.614624%,45.855713%);fill-opacity:1;" d="M 230.285156 218.785156 C 227.703125 218.785156 225.609375 216.691406 225.609375 214.109375 L 225.609375 203.136719 L 191.824219 155.535156 L 175.628906 153.488281 L 200.847656 201.65625 C 201.199219 202.324219 201.382812 203.070312 201.382812 203.824219 L 201.382812 214.109375 C 201.382812 216.691406 199.289062 218.785156 196.707031 218.785156 C 194.125 218.785156 192.03125 216.691406 192.03125 214.109375 L 192.03125 204.976562 L 163.191406 149.898438 C 162.386719 148.355469 162.5 146.492188 163.492188 145.0625 C 164.488281 143.632812 166.195312 142.875 167.921875 143.089844 L 195.03125 146.519531 C 196.332031 146.683594 197.5 147.386719 198.257812 148.449219 L 234.097656 198.9375 C 234.660156 199.730469 234.960938 200.671875 234.960938 201.644531 L 234.960938 214.109375 C 234.960938 216.691406 232.867188 218.785156 230.285156 218.785156 "/>
<path style=" stroke:none;fill-rule:nonzero;fill:rgb(46.586609%,45.614624%,45.855713%);fill-opacity:1;" d="M 163.898438 218.785156 C 163.066406 218.785156 162.222656 218.5625 161.464844 218.09375 C 159.261719 216.746094 158.570312 213.867188 159.921875 211.667969 L 165.839844 202.007812 C 166.6875 200.617188 168.199219 199.773438 169.824219 199.773438 L 230.285156 199.773438 C 232.867188 199.773438 234.960938 201.867188 234.960938 204.449219 C 234.960938 207.03125 232.867188 209.121094 230.285156 209.121094 L 172.441406 209.121094 L 167.890625 216.550781 C 167.007812 217.992188 165.472656 218.785156 163.898438 218.785156 "/>
<g clip-path="url(#clip1)" clip-rule="nonzero">
<path style=" stroke:none;fill-rule:nonzero;fill:rgb(46.586609%,45.614624%,45.855713%);fill-opacity:1;" d="M 167.328125 153.339844 C 166.402344 153.339844 165.464844 153.109375 164.597656 152.625 C 161.894531 151.117188 160.925781 147.699219 162.4375 144.992188 L 219.558594 42.703125 L 224.769531 14.871094 C 225.089844 13.171875 226.171875 11.714844 227.707031 10.921875 L 245.78125 1.570312 C 248.535156 0.152344 251.921875 1.226562 253.34375 3.976562 C 254.765625 6.730469 253.6875 10.113281 250.9375 11.535156 L 235.296875 19.628906 L 230.417969 45.671875 C 230.304688 46.265625 230.097656 46.84375 229.800781 47.371094 L 172.230469 150.464844 C 171.203125 152.304688 169.296875 153.339844 167.328125 153.339844 "/>
</g>
<path style=" stroke:none;fill-rule:nonzero;fill:rgb(78.431702%,78.039551%,78.137207%);fill-opacity:1;" d="M 227.707031 10.921875 C 229.023438 9.773438 230.429688 8.804688 231.867188 7.894531 C 233.308594 6.984375 234.777344 6.136719 236.285156 5.359375 C 237.789062 4.574219 239.332031 3.867188 240.90625 3.214844 C 242.480469 2.566406 244.085938 1.980469 245.78125 1.570312 C 244.46875 2.722656 243.0625 3.691406 241.621094 4.601562 C 240.183594 5.511719 238.714844 6.359375 237.203125 7.136719 C 235.699219 7.914062 234.15625 8.625 232.585938 9.273438 C 231.011719 9.921875 229.402344 10.511719 227.707031 10.921875 "/>
<path style=" stroke:none;fill-rule:nonzero;fill:rgb(46.586609%,45.614624%,45.855713%);fill-opacity:1;" d="M 80.695312 237.792969 C 80.695312 246.742188 73.441406 254 64.492188 254 C 55.539062 254 48.285156 246.742188 48.285156 237.792969 C 48.285156 228.84375 55.539062 221.589844 64.492188 221.589844 C 73.441406 221.589844 80.695312 228.84375 80.695312 237.792969 "/>
<path style=" stroke:none;fill-rule:nonzero;fill:rgb(56.864929%,56.079102%,56.274414%);fill-opacity:1;" d="M 44.960938 216.601562 L 44.960938 232.183594 L 66.984375 243.402344 L 69.714844 237.171875 L 57.335938 216.601562 "/>
<path style=" stroke:none;fill-rule:nonzero;fill:rgb(46.586609%,45.614624%,45.855713%);fill-opacity:1;" d="M 243.582031 237.792969 C 243.582031 246.742188 236.324219 254 227.375 254 C 218.425781 254 211.171875 246.742188 211.171875 237.792969 C 211.171875 228.84375 218.425781 221.589844 227.375 221.589844 C 236.324219 221.589844 243.582031 228.84375 243.582031 237.792969 "/>
<path style=" stroke:none;fill-rule:nonzero;fill:rgb(30.917358%,29.660034%,29.972839%);fill-opacity:1;" d="M 242.113281 235.300781 C 242.921875 245.15625 235.691406 252.445312 225.910156 251.507812 C 233.285156 247.71875 239.566406 243.035156 242.113281 235.300781 "/>
<path style=" stroke:none;fill-rule:nonzero;fill:rgb(30.917358%,29.660034%,29.972839%);fill-opacity:1;" d="M 77.785156 235.300781 C 78.589844 245.15625 71.363281 252.445312 61.582031 251.507812 C 68.957031 247.71875 75.238281 243.035156 77.785156 235.300781 "/>
<path style=" stroke:none;fill-rule:nonzero;fill:rgb(56.864929%,56.079102%,56.274414%);fill-opacity:1;" d="M 207.847656 216.601562 L 207.847656 232.183594 L 229.867188 243.402344 L 232.597656 237.171875 L 220.222656 216.601562 L 207.847656 216.601562 "/>
<path style=" stroke:none;fill-rule:nonzero;fill:rgb(46.586609%,45.614624%,45.855713%);fill-opacity:1;" d="M 220.363281 65.910156 L 10.792969 65.910156 C 8.210938 65.910156 6.117188 63.820312 6.117188 61.238281 C 6.117188 58.65625 8.210938 56.5625 10.792969 56.5625 L 220.363281 56.5625 C 222.945312 56.5625 225.039062 58.65625 225.039062 61.238281 C 225.039062 63.820312 222.945312 65.910156 220.363281 65.910156 "/>
<path style=" stroke:none;fill-rule:nonzero;fill:rgb(78.431702%,78.039551%,78.137207%);fill-opacity:1;" d="M 10.792969 55.5625 L 220.363281 56.5625 L 10.792969 57.5625 Z M 10.792969 55.5625 "/>
<path style=" stroke:none;fill-rule:nonzero;fill:rgb(46.586609%,45.614624%,45.855713%);fill-opacity:1;" d="M 210.734375 101.132812 C 210.679688 101.132812 210.621094 101.132812 210.566406 101.128906 L 18.679688 94.386719 C 16.101562 94.296875 14.082031 92.132812 14.171875 89.550781 C 14.261719 86.96875 16.453125 84.953125 19.007812 85.042969 L 210.894531 91.785156 C 213.476562 91.875 215.492188 94.039062 215.402344 96.621094 C 215.3125 99.144531 213.238281 101.132812 210.734375 101.132812 "/>
<path style=" stroke:none;fill-rule:nonzero;fill:rgb(78.431702%,78.039551%,78.137207%);fill-opacity:1;" d="M 19.042969 84.042969 L 210.894531 91.785156 L 18.972656 86.042969 Z M 19.042969 84.042969 "/>
<path style=" stroke:none;fill-rule:nonzero;fill:rgb(46.586609%,45.614624%,45.855713%);fill-opacity:1;" d="M 203.433594 127.824219 C 203.324219 127.824219 203.21875 127.820312 203.109375 127.816406 L 23.714844 115.503906 C 21.136719 115.324219 19.191406 113.09375 19.371094 110.519531 C 19.546875 107.941406 21.765625 105.996094 24.355469 106.175781 L 203.75 118.488281 C 206.324219 118.664062 208.269531 120.894531 208.09375 123.472656 C 207.925781 125.9375 205.871094 127.824219 203.433594 127.824219 "/>
<path style=" stroke:none;fill-rule:nonzero;fill:rgb(78.431702%,78.039551%,78.137207%);fill-opacity:1;" d="M 24.421875 105.175781 L 203.75 118.488281 L 24.285156 107.171875 Z M 24.421875 105.175781 "/>
<path style=" stroke:none;fill-rule:nonzero;fill:rgb(78.431702%,78.039551%,78.137207%);fill-opacity:1;" d="M 0 37.980469 L 234.632812 26.792969 L 0.105469 39.980469 Z M 0 37.980469 "/>
<path style=" stroke:none;fill-rule:nonzero;fill:rgb(78.431702%,78.039551%,78.137207%);fill-opacity:1;" d="M 57.335938 216.601562 C 56.304688 216.792969 55.273438 216.925781 54.242188 217.042969 C 53.210938 217.15625 52.179688 217.257812 51.148438 217.328125 C 49.085938 217.472656 47.023438 217.566406 44.960938 217.582031 L 45.941406 216.601562 C 45.96875 217.902344 45.953125 219.199219 45.929688 220.496094 C 45.929688 221.796875 45.84375 223.09375 45.796875 224.394531 C 45.636719 226.988281 45.425781 229.589844 44.960938 232.183594 C 44.496094 229.589844 44.285156 226.988281 44.128906 224.394531 C 44.078125 223.09375 43.996094 221.796875 43.992188 220.496094 C 43.96875 219.199219 43.953125 217.902344 43.984375 216.601562 L 44.007812 215.617188 L 44.960938 215.625 C 47.023438 215.636719 49.085938 215.734375 51.148438 215.878906 C 52.179688 215.949219 53.210938 216.046875 54.242188 216.160156 C 55.273438 216.277344 56.304688 216.414062 57.335938 216.601562 "/>
<path style=" stroke:none;fill-rule:nonzero;fill:rgb(78.431702%,78.039551%,78.137207%);fill-opacity:1;" d="M 220.222656 216.601562 C 219.191406 216.792969 218.160156 216.925781 217.128906 217.042969 C 216.097656 217.15625 215.066406 217.257812 214.035156 217.328125 C 211.972656 217.472656 209.910156 217.566406 207.847656 217.582031 L 208.824219 216.601562 C 208.855469 217.902344 208.839844 219.199219 208.816406 220.496094 C 208.8125 221.796875 208.730469 223.09375 208.679688 224.394531 C 208.519531 226.988281 208.3125 229.589844 207.847656 232.183594 C 207.382812 229.589844 207.171875 226.988281 207.011719 224.394531 C 206.964844 223.09375 206.878906 221.796875 206.878906 220.496094 C 206.855469 219.199219 206.839844 217.902344 206.867188 216.601562 L 206.890625 215.617188 L 207.847656 215.625 C 209.910156 215.636719 211.972656 215.734375 214.035156 215.878906 C 215.066406 215.949219 216.097656 216.046875 217.128906 216.160156 C 218.160156 216.277344 219.191406 216.414062 220.222656 216.601562 "/>
<path style=" stroke:none;fill-rule:nonzero;fill:rgb(30.917358%,29.660034%,29.972839%);fill-opacity:1;" d="M 200.074219 153.769531 L 25.585938 135.226562 L 200.273438 151.78125 Z M 200.074219 153.769531 "/>
</g>
</svg>
