<?xml version="1.0" encoding="UTF-8"?>
<svg xmlns="http://www.w3.org/2000/svg" xmlns:xlink="http://www.w3.org/1999/xlink" width="399pt" height="240pt" viewBox="0 0 399 240" version="1.1">
<defs>
<clipPath id="clip1">
  <path d="M 72 0.800781 L 326 0.800781 L 326 239 L 72 239 Z M 72 0.800781 "/>
</clipPath>
<clipPath id="clip2">
  <path d="M 198 0.839844 L 319 0.839844 L 319 121 L 198 121 Z M 198 0.839844 "/>
</clipPath>
</defs>
<g id="surface1">
<path style=" stroke:none;fill-rule:nonzero;fill:rgb(85.15625%,77.34375%,90.234375%);fill-opacity:1;" d="M 317.332031 119.914062 C 317.332031 185.269531 264.351562 238.25 198.996094 238.25 C 133.652344 238.25 80.671875 185.269531 80.671875 119.914062 C 80.671875 54.570312 133.652344 1.589844 198.996094 1.589844 C 264.351562 1.589844 317.332031 54.570312 317.332031 119.914062 "/>
<g clip-path="url(#clip1)" clip-rule="nonzero">
<path style="fill:none;stroke-width:15;stroke-linecap:butt;stroke-linejoin:miter;stroke:rgb(12.939453%,11.767578%,11.767578%);stroke-opacity:1;stroke-miterlimit:4;" d="M 3173.320312 1200.859375 C 3173.320312 547.304688 2643.515625 17.5 1989.960938 17.5 C 1336.523438 17.5 806.71875 547.304688 806.71875 1200.859375 C 806.71875 1854.296875 1336.523438 2384.101562 1989.960938 2384.101562 C 2643.515625 2384.101562 3173.320312 1854.296875 3173.320312 1200.859375 Z M 3173.320312 1200.859375 " transform="matrix(0.1,0,0,-0.1,0,240)"/>
</g>
<path style=" stroke:none;fill-rule:nonzero;fill:rgb(87.109375%,92.1875%,96.09375%);fill-opacity:1;" d="M 317.332031 119.914062 C 317.332031 54.570312 264.351562 1.589844 198.996094 1.589844 L 198.996094 119.914062 L 317.332031 119.914062 "/>
<g clip-path="url(#clip2)" clip-rule="nonzero">
<path style="fill:none;stroke-width:15;stroke-linecap:butt;stroke-linejoin:round;stroke:rgb(12.939453%,11.767578%,11.767578%);stroke-opacity:1;stroke-miterlimit:14.3356;" d="M 3173.320312 1200.859375 C 3173.320312 1854.296875 2643.515625 2384.101562 1989.960938 2384.101562 L 1989.960938 1200.859375 Z M 3173.320312 1200.859375 " transform="matrix(0.1,0,0,-0.1,0,240)"/>
</g>
<path style=" stroke:none;fill-rule:nonzero;fill:rgb(12.939453%,11.767578%,11.767578%);fill-opacity:1;" d="M 4.300781 110.527344 L 4.300781 98.714844 L 12.175781 110.527344 L 14.238281 110.527344 L 14.238281 95.480469 L 12.316406 95.480469 L 12.316406 107.292969 L 4.441406 95.480469 L 2.378906 95.480469 L 2.378906 110.527344 Z M 4.300781 110.527344 "/>
<path style=" stroke:none;fill-rule:nonzero;fill:rgb(12.939453%,11.767578%,11.767578%);fill-opacity:1;" d="M 23.632812 108.699219 C 23.164062 109.074219 22.601562 109.261719 21.898438 109.261719 C 21.007812 109.261719 20.210938 108.933594 19.601562 108.324219 C 18.992188 107.667969 18.664062 106.730469 18.617188 105.558594 L 26.726562 105.558594 C 26.726562 105.324219 26.726562 105.183594 26.726562 105.089844 C 26.726562 103.261719 26.257812 101.855469 25.367188 100.871094 C 24.429688 99.886719 23.257812 99.417969 21.804688 99.417969 C 20.304688 99.417969 19.085938 99.886719 18.148438 100.917969 C 17.164062 101.902344 16.742188 103.355469 16.742188 105.183594 C 16.742188 106.917969 17.164062 108.324219 18.148438 109.308594 C 19.039062 110.292969 20.304688 110.761719 21.898438 110.761719 C 23.164062 110.761719 24.195312 110.433594 25.039062 109.824219 C 25.835938 109.214844 26.398438 108.371094 26.679688 107.246094 L 24.757812 107.011719 C 24.476562 107.761719 24.101562 108.324219 23.632812 108.699219 Z M 19.695312 101.761719 C 20.257812 101.199219 20.960938 100.917969 21.804688 100.917969 C 22.742188 100.917969 23.492188 101.246094 24.101562 101.996094 C 24.476562 102.464844 24.710938 103.121094 24.804688 104.058594 L 18.710938 104.058594 C 18.757812 103.074219 19.085938 102.324219 19.695312 101.761719 Z M 19.695312 101.761719 "/>
<path style=" stroke:none;fill-rule:nonzero;fill:rgb(12.939453%,11.767578%,11.767578%);fill-opacity:1;" d="M 32.917969 110.527344 L 35.121094 102.136719 L 35.542969 104.011719 L 37.324219 110.527344 L 39.199219 110.527344 L 42.621094 99.605469 L 40.839844 99.605469 L 38.917969 105.933594 L 38.308594 108.042969 L 37.792969 105.933594 L 36.152344 99.605469 L 34.277344 99.605469 L 32.542969 106.027344 C 32.167969 107.386719 31.980469 108.136719 31.980469 108.277344 L 31.324219 105.886719 L 29.589844 99.605469 L 27.667969 99.605469 L 30.949219 110.527344 Z M 32.917969 110.527344 "/>
<path style=" stroke:none;fill-rule:nonzero;fill:rgb(12.939453%,11.767578%,11.767578%);fill-opacity:1;" d="M 9.128906 130.449219 C 8.191406 131.527344 7.300781 132.839844 6.457031 134.386719 C 5.660156 135.933594 5.003906 137.574219 4.582031 139.261719 C 4.113281 140.902344 3.878906 142.355469 3.878906 143.527344 L 5.753906 143.527344 C 5.847656 142.027344 6.082031 140.667969 6.457031 139.402344 C 6.972656 137.621094 7.722656 135.839844 8.660156 134.199219 C 9.597656 132.464844 10.535156 131.105469 11.472656 130.121094 L 11.472656 128.667969 L 1.769531 128.667969 L 1.769531 130.449219 Z M 9.128906 130.449219 "/>
<path style=" stroke:none;fill-rule:nonzero;fill:rgb(12.939453%,11.767578%,11.767578%);fill-opacity:1;" d="M 14.804688 142.636719 C 15.695312 143.386719 16.820312 143.761719 18.179688 143.761719 C 19.820312 143.761719 21.132812 143.152344 22.117188 141.933594 C 22.914062 140.949219 23.289062 139.777344 23.289062 138.417969 C 23.289062 137.011719 22.867188 135.839844 21.929688 134.902344 C 21.039062 134.011719 19.914062 133.542969 18.648438 133.542969 C 17.664062 133.542969 16.679688 133.871094 15.789062 134.480469 L 16.585938 130.449219 L 22.585938 130.449219 L 22.585938 128.667969 L 15.132812 128.667969 L 13.679688 136.402344 L 15.414062 136.683594 C 15.695312 136.214844 16.070312 135.839844 16.539062 135.605469 C 17.007812 135.324219 17.523438 135.183594 18.132812 135.183594 C 19.117188 135.183594 19.914062 135.464844 20.476562 136.074219 C 21.039062 136.683594 21.367188 137.527344 21.367188 138.605469 C 21.367188 139.683594 21.039062 140.574219 20.429688 141.277344 C 19.820312 141.933594 19.070312 142.261719 18.179688 142.261719 C 17.429688 142.261719 16.773438 142.027344 16.257812 141.558594 C 15.742188 141.089844 15.414062 140.386719 15.273438 139.449219 L 13.351562 139.589844 C 13.492188 140.855469 13.960938 141.886719 14.804688 142.636719 Z M 14.804688 142.636719 "/>
<path style=" stroke:none;fill-rule:nonzero;fill:rgb(12.939453%,11.767578%,11.767578%);fill-opacity:1;" d="M 26.058594 143.527344 L 28.167969 143.527344 L 28.167969 141.417969 L 26.058594 141.417969 Z M 26.058594 143.527344 "/>
<path style=" stroke:none;fill-rule:nonzero;fill:rgb(12.939453%,11.767578%,11.767578%);fill-opacity:1;" d="M 32.363281 142.214844 C 33.160156 143.246094 34.285156 143.761719 35.738281 143.761719 C 36.816406 143.761719 37.753906 143.480469 38.457031 142.917969 C 39.207031 142.308594 39.722656 141.464844 40.097656 140.386719 C 40.472656 139.308594 40.660156 137.855469 40.660156 136.121094 C 40.660156 134.621094 40.519531 133.449219 40.285156 132.558594 C 40.050781 131.667969 39.769531 130.917969 39.394531 130.308594 C 38.972656 129.699219 38.457031 129.230469 37.847656 128.902344 C 37.238281 128.574219 36.535156 128.433594 35.738281 128.433594 C 34.660156 128.433594 33.769531 128.714844 33.019531 129.324219 C 32.316406 129.886719 31.753906 130.730469 31.378906 131.808594 C 31.050781 132.886719 30.863281 134.339844 30.863281 136.121094 C 30.863281 138.933594 31.378906 140.949219 32.363281 142.214844 Z M 33.675781 131.011719 C 34.191406 130.308594 34.894531 129.980469 35.738281 129.980469 C 36.582031 129.980469 37.285156 130.355469 37.894531 131.199219 C 38.457031 131.996094 38.738281 133.636719 38.738281 136.121094 C 38.738281 138.605469 38.457031 140.246094 37.894531 141.042969 C 37.285156 141.886719 36.582031 142.261719 35.738281 142.261719 C 34.894531 142.261719 34.191406 141.886719 33.628906 141.042969 C 33.019531 140.246094 32.738281 138.605469 32.738281 136.121094 C 32.738281 133.636719 33.066406 131.949219 33.675781 131.011719 Z M 33.675781 131.011719 "/>
<path style=" stroke:none;fill-rule:nonzero;fill:rgb(12.939453%,11.767578%,11.767578%);fill-opacity:1;" d="M 43.757812 135.183594 C 44.367188 135.839844 45.117188 136.167969 46.054688 136.167969 C 46.992188 136.167969 47.742188 135.839844 48.351562 135.136719 C 49.007812 134.433594 49.335938 133.496094 49.335938 132.230469 C 49.335938 130.917969 49.007812 129.933594 48.398438 129.230469 C 47.742188 128.574219 46.992188 128.246094 46.054688 128.246094 C 45.023438 128.246094 44.226562 128.621094 43.664062 129.371094 C 43.148438 130.121094 42.867188 131.011719 42.867188 132.089844 C 42.867188 133.449219 43.148438 134.480469 43.757812 135.183594 Z M 47.226562 130.121094 C 47.554688 130.496094 47.695312 131.199219 47.695312 132.136719 C 47.695312 133.214844 47.554688 133.917969 47.226562 134.292969 C 46.945312 134.714844 46.523438 134.902344 46.101562 134.902344 C 45.632812 134.902344 45.257812 134.714844 44.929688 134.292969 C 44.648438 133.917969 44.460938 133.214844 44.460938 132.277344 C 44.460938 131.199219 44.648438 130.496094 44.929688 130.121094 C 45.257812 129.699219 45.632812 129.511719 46.101562 129.511719 C 46.523438 129.511719 46.898438 129.699219 47.226562 130.121094 Z M 47.601562 144.089844 L 55.804688 128.246094 L 54.304688 128.246094 L 46.101562 144.089844 Z M 53.460938 143.058594 C 54.070312 143.714844 54.820312 144.089844 55.757812 144.089844 C 56.695312 144.089844 57.445312 143.714844 58.054688 143.058594 C 58.710938 142.355469 58.992188 141.371094 58.992188 140.105469 C 58.992188 138.792969 58.710938 137.808594 58.101562 137.152344 C 57.445312 136.449219 56.695312 136.121094 55.757812 136.121094 C 54.726562 136.121094 53.929688 136.496094 53.367188 137.246094 C 52.851562 137.996094 52.570312 138.886719 52.570312 140.011719 C 52.570312 141.371094 52.851562 142.355469 53.460938 143.058594 Z M 56.929688 137.996094 C 57.257812 138.417969 57.398438 139.074219 57.398438 140.058594 C 57.398438 141.089844 57.257812 141.792969 56.929688 142.214844 C 56.648438 142.589844 56.226562 142.777344 55.804688 142.777344 C 55.335938 142.777344 54.960938 142.589844 54.632812 142.214844 C 54.351562 141.792969 54.164062 141.136719 54.164062 140.199219 C 54.164062 139.121094 54.351562 138.417969 54.632812 137.996094 C 54.960938 137.621094 55.335938 137.433594 55.804688 137.433594 C 56.226562 137.433594 56.601562 137.621094 56.929688 137.996094 Z M 56.929688 137.996094 "/>
<path style=" stroke:none;fill-rule:nonzero;fill:rgb(12.939453%,11.767578%,11.767578%);fill-opacity:1;" d="M 342.386719 35.316406 C 342.949219 36.488281 343.792969 37.425781 344.917969 38.082031 C 346.042969 38.785156 347.308594 39.113281 348.714844 39.113281 C 350.027344 39.113281 351.246094 38.832031 352.371094 38.222656 C 353.496094 37.566406 354.386719 36.675781 354.996094 35.457031 C 355.605469 34.285156 355.886719 32.925781 355.886719 31.378906 C 355.886719 29.878906 355.605469 28.566406 355.042969 27.347656 C 354.433594 26.175781 353.589844 25.238281 352.464844 24.582031 C 351.386719 23.925781 350.121094 23.597656 348.714844 23.597656 C 346.605469 23.597656 344.871094 24.300781 343.558594 25.707031 C 342.199219 27.113281 341.542969 29.082031 341.542969 31.566406 C 341.542969 32.878906 341.824219 34.144531 342.386719 35.316406 Z M 345.105469 26.785156 C 346.136719 25.800781 347.308594 25.332031 348.714844 25.332031 C 349.746094 25.332031 350.589844 25.566406 351.433594 26.082031 C 352.230469 26.550781 352.839844 27.253906 353.214844 28.191406 C 353.636719 29.082031 353.824219 30.160156 353.824219 31.378906 C 353.824219 33.300781 353.355469 34.800781 352.417969 35.832031 C 351.433594 36.910156 350.214844 37.425781 348.714844 37.425781 C 347.214844 37.425781 345.996094 36.910156 345.058594 35.878906 C 344.074219 34.847656 343.558594 33.394531 343.558594 31.613281 C 343.558594 29.363281 344.074219 27.722656 345.105469 26.785156 Z M 345.105469 26.785156 "/>
<path style=" stroke:none;fill-rule:nonzero;fill:rgb(12.939453%,11.767578%,11.767578%);fill-opacity:1;" d="M 358.207031 38.878906 L 360.035156 38.878906 L 360.035156 23.832031 L 358.207031 23.832031 Z M 358.207031 38.878906 "/>
<path style=" stroke:none;fill-rule:nonzero;fill:rgb(12.939453%,11.767578%,11.767578%);fill-opacity:1;" d="M 371.636719 38.878906 L 371.636719 23.832031 L 369.808594 23.832031 L 369.808594 29.269531 C 369.480469 28.800781 369.058594 28.425781 368.542969 28.191406 C 368.027344 27.910156 367.464844 27.769531 366.808594 27.769531 C 365.917969 27.769531 365.121094 27.957031 364.371094 28.472656 C 363.667969 28.941406 363.105469 29.597656 362.730469 30.488281 C 362.402344 31.378906 362.214844 32.363281 362.214844 33.441406 C 362.214844 34.566406 362.402344 35.550781 362.824219 36.394531 C 363.199219 37.238281 363.761719 37.894531 364.511719 38.410156 C 365.214844 38.878906 366.011719 39.113281 366.902344 39.113281 C 368.214844 39.113281 369.246094 38.550781 369.949219 37.472656 L 369.949219 38.878906 Z M 364.933594 30.300781 C 365.496094 29.597656 366.152344 29.269531 366.996094 29.269531 C 367.839844 29.269531 368.542969 29.644531 369.105469 30.347656 C 369.667969 31.003906 369.996094 32.128906 369.996094 33.628906 C 369.996094 34.941406 369.714844 35.972656 369.152344 36.628906 C 368.589844 37.285156 367.886719 37.613281 367.042969 37.613281 C 366.246094 37.613281 365.542969 37.285156 364.980469 36.582031 C 364.371094 35.878906 364.089844 34.847656 364.089844 33.441406 C 364.089844 32.035156 364.371094 30.957031 364.933594 30.300781 Z M 364.933594 30.300781 "/>
<path style=" stroke:none;fill-rule:nonzero;fill:rgb(12.939453%,11.767578%,11.767578%);fill-opacity:1;" d="M 343.699219 70.097656 C 343.886719 69.769531 344.167969 69.441406 344.496094 69.113281 C 344.777344 68.785156 345.527344 68.128906 346.605469 67.238281 C 347.964844 66.113281 348.902344 65.222656 349.464844 64.566406 C 350.027344 63.910156 350.449219 63.300781 350.683594 62.738281 C 350.917969 62.175781 351.058594 61.566406 351.058594 60.957031 C 351.058594 59.785156 350.636719 58.753906 349.792969 57.957031 C 348.949219 57.160156 347.777344 56.785156 346.371094 56.785156 C 344.964844 56.785156 343.792969 57.160156 342.949219 57.910156 C 342.105469 58.613281 341.589844 59.738281 341.496094 61.144531 L 343.371094 61.332031 C 343.371094 60.347656 343.652344 59.644531 344.167969 59.128906 C 344.730469 58.566406 345.433594 58.332031 346.324219 58.332031 C 347.167969 58.332031 347.871094 58.566406 348.386719 59.082031 C 348.902344 59.550781 349.183594 60.160156 349.183594 60.910156 C 349.183594 61.613281 348.855469 62.363281 348.292969 63.160156 C 347.730469 63.910156 346.605469 64.988281 344.964844 66.347656 C 343.933594 67.191406 343.136719 67.941406 342.574219 68.597656 C 342.011719 69.253906 341.589844 69.910156 341.308594 70.613281 C 341.167969 70.988281 341.121094 71.457031 341.121094 71.878906 L 351.058594 71.878906 L 351.058594 70.097656 Z M 343.699219 70.097656 "/>
<path style=" stroke:none;fill-rule:nonzero;fill:rgb(12.939453%,11.767578%,11.767578%);fill-opacity:1;" d="M 354.53125 70.988281 C 355.421875 71.738281 356.546875 72.113281 357.90625 72.113281 C 359.546875 72.113281 360.859375 71.503906 361.84375 70.285156 C 362.640625 69.300781 363.015625 68.128906 363.015625 66.769531 C 363.015625 65.363281 362.59375 64.191406 361.65625 63.253906 C 360.765625 62.363281 359.640625 61.894531 358.375 61.894531 C 357.390625 61.894531 356.40625 62.222656 355.515625 62.832031 L 356.3125 58.800781 L 362.3125 58.800781 L 362.3125 57.019531 L 354.859375 57.019531 L 353.40625 64.753906 L 355.140625 65.035156 C 355.421875 64.566406 355.796875 64.191406 356.265625 63.957031 C 356.734375 63.675781 357.25 63.535156 357.859375 63.535156 C 358.84375 63.535156 359.640625 63.816406 360.203125 64.425781 C 360.765625 65.035156 361.09375 65.878906 361.09375 66.957031 C 361.09375 68.035156 360.765625 68.925781 360.15625 69.628906 C 359.546875 70.285156 358.796875 70.613281 357.90625 70.613281 C 357.15625 70.613281 356.5 70.378906 355.984375 69.910156 C 355.46875 69.441406 355.140625 68.738281 355 67.800781 L 353.078125 67.941406 C 353.21875 69.207031 353.6875 70.238281 354.53125 70.988281 Z M 354.53125 70.988281 "/>
<path style=" stroke:none;fill-rule:nonzero;fill:rgb(12.939453%,11.767578%,11.767578%);fill-opacity:1;" d="M 365.785156 71.878906 L 367.894531 71.878906 L 367.894531 69.769531 L 365.785156 69.769531 Z M 365.785156 71.878906 "/>
<path style=" stroke:none;fill-rule:nonzero;fill:rgb(12.939453%,11.767578%,11.767578%);fill-opacity:1;" d="M 372.089844 70.566406 C 372.886719 71.597656 374.011719 72.113281 375.464844 72.113281 C 376.542969 72.113281 377.480469 71.832031 378.183594 71.269531 C 378.933594 70.660156 379.449219 69.816406 379.824219 68.738281 C 380.199219 67.660156 380.386719 66.207031 380.386719 64.472656 C 380.386719 62.972656 380.246094 61.800781 380.011719 60.910156 C 379.777344 60.019531 379.496094 59.269531 379.121094 58.660156 C 378.699219 58.050781 378.183594 57.582031 377.574219 57.253906 C 376.964844 56.925781 376.261719 56.785156 375.464844 56.785156 C 374.386719 56.785156 373.496094 57.066406 372.746094 57.675781 C 372.042969 58.238281 371.480469 59.082031 371.105469 60.160156 C 370.777344 61.238281 370.589844 62.691406 370.589844 64.472656 C 370.589844 67.285156 371.105469 69.300781 372.089844 70.566406 Z M 373.402344 59.363281 C 373.917969 58.660156 374.621094 58.332031 375.464844 58.332031 C 376.308594 58.332031 377.011719 58.707031 377.621094 59.550781 C 378.183594 60.347656 378.464844 61.988281 378.464844 64.472656 C 378.464844 66.957031 378.183594 68.597656 377.621094 69.394531 C 377.011719 70.238281 376.308594 70.613281 375.464844 70.613281 C 374.621094 70.613281 373.917969 70.238281 373.355469 69.394531 C 372.746094 68.597656 372.464844 66.957031 372.464844 64.472656 C 372.464844 61.988281 372.792969 60.300781 373.402344 59.363281 Z M 373.402344 59.363281 "/>
<path style=" stroke:none;fill-rule:nonzero;fill:rgb(12.939453%,11.767578%,11.767578%);fill-opacity:1;" d="M 383.484375 63.535156 C 384.09375 64.191406 384.84375 64.519531 385.78125 64.519531 C 386.71875 64.519531 387.46875 64.191406 388.078125 63.488281 C 388.734375 62.785156 389.0625 61.847656 389.0625 60.582031 C 389.0625 59.269531 388.734375 58.285156 388.125 57.582031 C 387.46875 56.925781 386.71875 56.597656 385.78125 56.597656 C 384.75 56.597656 383.953125 56.972656 383.390625 57.722656 C 382.875 58.472656 382.59375 59.363281 382.59375 60.441406 C 382.59375 61.800781 382.875 62.832031 383.484375 63.535156 Z M 386.953125 58.472656 C 387.28125 58.847656 387.421875 59.550781 387.421875 60.488281 C 387.421875 61.566406 387.28125 62.269531 386.953125 62.644531 C 386.671875 63.066406 386.25 63.253906 385.828125 63.253906 C 385.359375 63.253906 384.984375 63.066406 384.65625 62.644531 C 384.375 62.269531 384.1875 61.566406 384.1875 60.628906 C 384.1875 59.550781 384.375 58.847656 384.65625 58.472656 C 384.984375 58.050781 385.359375 57.863281 385.828125 57.863281 C 386.25 57.863281 386.625 58.050781 386.953125 58.472656 Z M 387.328125 72.441406 L 395.53125 56.597656 L 394.03125 56.597656 L 385.828125 72.441406 Z M 393.1875 71.410156 C 393.796875 72.066406 394.546875 72.441406 395.484375 72.441406 C 396.421875 72.441406 397.171875 72.066406 397.78125 71.410156 C 398.4375 70.707031 398.71875 69.722656 398.71875 68.457031 C 398.71875 67.144531 398.4375 66.160156 397.828125 65.503906 C 397.171875 64.800781 396.421875 64.472656 395.484375 64.472656 C 394.453125 64.472656 393.65625 64.847656 393.09375 65.597656 C 392.578125 66.347656 392.296875 67.238281 392.296875 68.363281 C 392.296875 69.722656 392.578125 70.707031 393.1875 71.410156 Z M 396.65625 66.347656 C 396.984375 66.769531 397.125 67.425781 397.125 68.410156 C 397.125 69.441406 396.984375 70.144531 396.65625 70.566406 C 396.375 70.941406 395.953125 71.128906 395.53125 71.128906 C 395.0625 71.128906 394.6875 70.941406 394.359375 70.566406 C 394.078125 70.144531 393.890625 69.488281 393.890625 68.550781 C 393.890625 67.472656 394.078125 66.769531 394.359375 66.347656 C 394.6875 65.972656 395.0625 65.785156 395.53125 65.785156 C 395.953125 65.785156 396.328125 65.972656 396.65625 66.347656 Z M 396.65625 66.347656 "/>
<path style="fill:none;stroke-width:15;stroke-linecap:butt;stroke-linejoin:miter;stroke:rgb(12.939453%,11.767578%,11.767578%);stroke-opacity:1;stroke-miterlimit:4;" d="M 2683.125 1910.78125 L 3979.921875 1910.78125 " transform="matrix(0.1,0,0,-0.1,0,240)"/>
<path style=" stroke:none;fill-rule:nonzero;fill:rgb(12.939453%,11.767578%,11.767578%);fill-opacity:1;" d="M 271.3125 48.921875 C 271.3125 50.574219 269.964844 51.921875 268.3125 51.921875 C 266.660156 51.921875 265.3125 50.574219 265.3125 48.921875 C 265.3125 47.257812 266.660156 45.921875 268.3125 45.921875 C 269.964844 45.921875 271.3125 47.257812 271.3125 48.921875 "/>
<path style="fill:none;stroke-width:15;stroke-linecap:butt;stroke-linejoin:miter;stroke:rgb(12.939453%,11.767578%,11.767578%);stroke-opacity:1;stroke-miterlimit:4;" d="M 1005 1208.359375 L 0 1208.359375 " transform="matrix(0.1,0,0,-0.1,0,240)"/>
<path style=" stroke:none;fill-rule:nonzero;fill:rgb(12.939453%,11.767578%,11.767578%);fill-opacity:1;" d="M 97.5 119.164062 C 97.5 120.828125 98.847656 122.164062 100.5 122.164062 C 102.152344 122.164062 103.5 120.828125 103.5 119.164062 C 103.5 117.511719 102.152344 116.164062 100.5 116.164062 C 98.847656 116.164062 97.5 117.511719 97.5 119.164062 "/>
</g>
</svg>
