<?xml version="1.0" encoding="UTF-8"?>
<svg xmlns="http://www.w3.org/2000/svg" xmlns:xlink="http://www.w3.org/1999/xlink" width="432pt" height="375pt" viewBox="0 0 432 375" version="1.1">
<defs>
<clipPath id="clip1">
  <path d="M 96 46 L 432 46 L 432 374.101562 L 96 374.101562 Z M 96 46 "/>
</clipPath>
</defs>
<g id="surface1">
<path style=" stroke:none;fill-rule:nonzero;fill:rgb(85.15625%,77.34375%,90.234375%);fill-opacity:1;" d="M 423.109375 215.234375 C 423.109375 302.359375 352.46875 373 265.328125 373 C 178.203125 373 107.5625 302.359375 107.5625 215.234375 C 107.5625 128.09375 178.203125 57.453125 265.328125 57.453125 C 352.46875 57.453125 423.109375 128.09375 423.109375 215.234375 "/>
<g clip-path="url(#clip1)" clip-rule="nonzero">
<path style="fill:none;stroke-width:20;stroke-linecap:butt;stroke-linejoin:miter;stroke:rgb(12.939453%,11.767578%,11.767578%);stroke-opacity:1;stroke-miterlimit:4;" d="M 4231.09375 1597.65625 C 4231.09375 726.40625 3524.6875 20 2653.28125 20 C 1782.03125 20 1075.625 726.40625 1075.625 1597.65625 C 1075.625 2469.0625 1782.03125 3175.46875 2653.28125 3175.46875 C 3524.6875 3175.46875 4231.09375 2469.0625 4231.09375 1597.65625 Z M 4231.09375 1597.65625 " transform="matrix(0.1,0,0,-0.1,0,375)"/>
</g>
<path style=" stroke:none;fill-rule:nonzero;fill:rgb(87.109375%,92.1875%,96.09375%);fill-opacity:1;" d="M 314.09375 65.171875 C 298.734375 60.1875 282.359375 57.453125 265.328125 57.453125 L 265.328125 215.234375 L 314.09375 65.171875 "/>
<path style="fill:none;stroke-width:20;stroke-linecap:butt;stroke-linejoin:round;stroke:rgb(12.939453%,11.767578%,11.767578%);stroke-opacity:1;stroke-miterlimit:14.3356;" d="M 3140.9375 3098.28125 C 2987.34375 3148.125 2823.59375 3175.46875 2653.28125 3175.46875 L 2653.28125 1597.65625 Z M 3140.9375 3098.28125 " transform="matrix(0.1,0,0,-0.1,0,375)"/>
<path style=" stroke:none;fill-rule:nonzero;fill:rgb(12.939453%,11.767578%,11.767578%);fill-opacity:1;" d="M 5.734375 202.710938 L 5.734375 186.960938 L 16.234375 202.710938 L 18.984375 202.710938 L 18.984375 182.648438 L 16.421875 182.648438 L 16.421875 198.398438 L 5.921875 182.648438 L 3.171875 182.648438 L 3.171875 202.710938 Z M 5.734375 202.710938 "/>
<path style=" stroke:none;fill-rule:nonzero;fill:rgb(12.939453%,11.767578%,11.767578%);fill-opacity:1;" d="M 31.511719 200.273438 C 30.886719 200.773438 30.136719 201.023438 29.199219 201.023438 C 28.011719 201.023438 26.949219 200.585938 26.136719 199.773438 C 25.324219 198.898438 24.886719 197.648438 24.824219 196.085938 L 35.636719 196.085938 C 35.636719 195.773438 35.636719 195.585938 35.636719 195.460938 C 35.636719 193.023438 35.011719 191.148438 33.824219 189.835938 C 32.574219 188.523438 31.011719 187.898438 29.074219 187.898438 C 27.074219 187.898438 25.449219 188.523438 24.199219 189.898438 C 22.886719 191.210938 22.324219 193.148438 22.324219 195.585938 C 22.324219 197.898438 22.886719 199.773438 24.199219 201.085938 C 25.386719 202.398438 27.074219 203.023438 29.199219 203.023438 C 30.886719 203.023438 32.261719 202.585938 33.386719 201.773438 C 34.449219 200.960938 35.199219 199.835938 35.574219 198.335938 L 33.011719 198.023438 C 32.636719 199.023438 32.136719 199.773438 31.511719 200.273438 Z M 26.261719 191.023438 C 27.011719 190.273438 27.949219 189.898438 29.074219 189.898438 C 30.324219 189.898438 31.324219 190.335938 32.136719 191.335938 C 32.636719 191.960938 32.949219 192.835938 33.074219 194.085938 L 24.949219 194.085938 C 25.011719 192.773438 25.449219 191.773438 26.261719 191.023438 Z M 26.261719 191.023438 "/>
<path style=" stroke:none;fill-rule:nonzero;fill:rgb(12.939453%,11.767578%,11.767578%);fill-opacity:1;" d="M 43.890625 202.710938 L 46.828125 191.523438 L 47.390625 194.023438 L 49.765625 202.710938 L 52.265625 202.710938 L 56.828125 188.148438 L 54.453125 188.148438 L 51.890625 196.585938 L 51.078125 199.398438 L 50.390625 196.585938 L 48.203125 188.148438 L 45.703125 188.148438 L 43.390625 196.710938 C 42.890625 198.523438 42.640625 199.523438 42.640625 199.710938 L 41.765625 196.523438 L 39.453125 188.148438 L 36.890625 188.148438 L 41.265625 202.710938 Z M 43.890625 202.710938 "/>
<path style=" stroke:none;fill-rule:nonzero;fill:rgb(12.939453%,11.767578%,11.767578%);fill-opacity:1;" d="M 4.359375 245.710938 C 5.359375 246.585938 6.671875 247.023438 8.234375 247.023438 C 9.671875 247.023438 10.984375 246.648438 12.109375 245.898438 C 13.171875 245.085938 13.984375 243.898438 14.546875 242.398438 C 15.109375 240.898438 15.359375 238.835938 15.359375 236.273438 C 15.359375 233.773438 15.109375 231.898438 14.546875 230.648438 C 13.984375 229.335938 13.171875 228.335938 12.109375 227.648438 C 10.984375 226.960938 9.796875 226.585938 8.546875 226.585938 C 6.671875 226.585938 5.234375 227.210938 3.984375 228.398438 C 2.796875 229.710938 2.234375 231.335938 2.234375 233.335938 C 2.234375 235.335938 2.796875 236.898438 3.921875 238.085938 C 5.109375 239.335938 6.484375 239.898438 8.109375 239.898438 C 9.109375 239.898438 10.046875 239.648438 10.921875 239.148438 C 11.796875 238.648438 12.421875 238.085938 12.921875 237.273438 C 12.921875 237.523438 12.921875 237.648438 12.921875 237.773438 C 12.921875 238.773438 12.796875 239.773438 12.546875 240.773438 C 12.359375 241.773438 12.046875 242.523438 11.671875 243.148438 C 11.296875 243.710938 10.796875 244.148438 10.234375 244.523438 C 9.671875 244.835938 9.046875 245.023438 8.296875 245.023438 C 7.359375 245.023438 6.671875 244.773438 6.109375 244.273438 C 5.546875 243.773438 5.109375 242.960938 4.921875 241.835938 L 2.609375 242.085938 C 2.796875 243.648438 3.359375 244.835938 4.359375 245.710938 Z M 11.546875 236.523438 C 10.796875 237.335938 9.859375 237.710938 8.734375 237.710938 C 7.609375 237.710938 6.671875 237.335938 5.921875 236.523438 C 5.109375 235.710938 4.734375 234.710938 4.734375 233.460938 C 4.734375 232.023438 5.109375 230.835938 5.921875 229.960938 C 6.734375 229.085938 7.734375 228.648438 8.796875 228.648438 C 9.859375 228.648438 10.734375 229.023438 11.546875 229.835938 C 12.296875 230.710938 12.609375 231.835938 12.609375 233.210938 C 12.609375 234.648438 12.296875 235.710938 11.546875 236.523438 Z M 11.546875 236.523438 "/>
<path style=" stroke:none;fill-rule:nonzero;fill:rgb(12.939453%,11.767578%,11.767578%);fill-opacity:1;" d="M 19.738281 245.523438 C 20.925781 246.523438 22.425781 247.023438 24.238281 247.023438 C 26.425781 247.023438 28.175781 246.210938 29.488281 244.585938 C 30.550781 243.273438 31.050781 241.710938 31.050781 239.898438 C 31.050781 238.023438 30.488281 236.460938 29.238281 235.210938 C 28.050781 234.023438 26.550781 233.398438 24.863281 233.398438 C 23.550781 233.398438 22.238281 233.835938 21.050781 234.648438 L 22.113281 229.273438 L 30.113281 229.273438 L 30.113281 226.898438 L 20.175781 226.898438 L 18.238281 237.210938 L 20.550781 237.585938 C 20.925781 236.960938 21.425781 236.460938 22.050781 236.148438 C 22.675781 235.773438 23.363281 235.585938 24.175781 235.585938 C 25.488281 235.585938 26.550781 235.960938 27.300781 236.773438 C 28.050781 237.585938 28.488281 238.710938 28.488281 240.148438 C 28.488281 241.585938 28.050781 242.773438 27.238281 243.710938 C 26.425781 244.585938 25.425781 245.023438 24.238281 245.023438 C 23.238281 245.023438 22.363281 244.710938 21.675781 244.085938 C 20.988281 243.460938 20.550781 242.523438 20.363281 241.273438 L 17.800781 241.460938 C 17.988281 243.148438 18.613281 244.523438 19.738281 245.523438 Z M 19.738281 245.523438 "/>
<path style=" stroke:none;fill-rule:nonzero;fill:rgb(12.939453%,11.767578%,11.767578%);fill-opacity:1;" d="M 34.742188 246.710938 L 37.554688 246.710938 L 37.554688 243.898438 L 34.742188 243.898438 Z M 34.742188 246.710938 "/>
<path style=" stroke:none;fill-rule:nonzero;fill:rgb(12.939453%,11.767578%,11.767578%);fill-opacity:1;" d="M 43.152344 244.960938 C 44.214844 246.335938 45.714844 247.023438 47.652344 247.023438 C 49.089844 247.023438 50.339844 246.648438 51.277344 245.898438 C 52.277344 245.085938 52.964844 243.960938 53.464844 242.523438 C 53.964844 241.085938 54.214844 239.148438 54.214844 236.835938 C 54.214844 234.835938 54.027344 233.273438 53.714844 232.085938 C 53.402344 230.898438 53.027344 229.898438 52.527344 229.085938 C 51.964844 228.273438 51.277344 227.648438 50.464844 227.210938 C 49.652344 226.773438 48.714844 226.585938 47.652344 226.585938 C 46.214844 226.585938 45.027344 226.960938 44.027344 227.773438 C 43.089844 228.523438 42.339844 229.648438 41.839844 231.085938 C 41.402344 232.523438 41.152344 234.460938 41.152344 236.835938 C 41.152344 240.585938 41.839844 243.273438 43.152344 244.960938 Z M 44.902344 230.023438 C 45.589844 229.085938 46.527344 228.648438 47.652344 228.648438 C 48.777344 228.648438 49.714844 229.148438 50.527344 230.273438 C 51.277344 231.335938 51.652344 233.523438 51.652344 236.835938 C 51.652344 240.148438 51.277344 242.335938 50.527344 243.398438 C 49.714844 244.523438 48.777344 245.023438 47.652344 245.023438 C 46.527344 245.023438 45.589844 244.523438 44.839844 243.398438 C 44.027344 242.335938 43.652344 240.148438 43.652344 236.835938 C 43.652344 233.523438 44.089844 231.273438 44.902344 230.023438 Z M 44.902344 230.023438 "/>
<path style=" stroke:none;fill-rule:nonzero;fill:rgb(12.939453%,11.767578%,11.767578%);fill-opacity:1;" d="M 58.347656 235.585938 C 59.160156 236.460938 60.160156 236.898438 61.410156 236.898438 C 62.660156 236.898438 63.660156 236.460938 64.472656 235.523438 C 65.347656 234.585938 65.785156 233.335938 65.785156 231.648438 C 65.785156 229.898438 65.347656 228.585938 64.535156 227.648438 C 63.660156 226.773438 62.660156 226.335938 61.410156 226.335938 C 60.035156 226.335938 58.972656 226.835938 58.222656 227.835938 C 57.535156 228.835938 57.160156 230.023438 57.160156 231.460938 C 57.160156 233.273438 57.535156 234.648438 58.347656 235.585938 Z M 62.972656 228.835938 C 63.410156 229.335938 63.597656 230.273438 63.597656 231.523438 C 63.597656 232.960938 63.410156 233.898438 62.972656 234.398438 C 62.597656 234.960938 62.035156 235.210938 61.472656 235.210938 C 60.847656 235.210938 60.347656 234.960938 59.910156 234.398438 C 59.535156 233.898438 59.285156 232.960938 59.285156 231.710938 C 59.285156 230.273438 59.535156 229.335938 59.910156 228.835938 C 60.347656 228.273438 60.847656 228.023438 61.472656 228.023438 C 62.035156 228.023438 62.535156 228.273438 62.972656 228.835938 Z M 63.472656 247.460938 L 74.410156 226.335938 L 72.410156 226.335938 L 61.472656 247.460938 Z M 71.285156 246.085938 C 72.097656 246.960938 73.097656 247.460938 74.347656 247.460938 C 75.597656 247.460938 76.597656 246.960938 77.410156 246.085938 C 78.285156 245.148438 78.660156 243.835938 78.660156 242.148438 C 78.660156 240.398438 78.285156 239.085938 77.472656 238.210938 C 76.597656 237.273438 75.597656 236.835938 74.347656 236.835938 C 72.972656 236.835938 71.910156 237.335938 71.160156 238.335938 C 70.472656 239.335938 70.097656 240.523438 70.097656 242.023438 C 70.097656 243.835938 70.472656 245.148438 71.285156 246.085938 Z M 75.910156 239.335938 C 76.347656 239.898438 76.535156 240.773438 76.535156 242.085938 C 76.535156 243.460938 76.347656 244.398438 75.910156 244.960938 C 75.535156 245.460938 74.972656 245.710938 74.410156 245.710938 C 73.785156 245.710938 73.285156 245.460938 72.847656 244.960938 C 72.472656 244.398438 72.222656 243.523438 72.222656 242.273438 C 72.222656 240.835938 72.472656 239.898438 72.847656 239.335938 C 73.285156 238.835938 73.785156 238.585938 74.410156 238.585938 C 74.972656 238.585938 75.472656 238.835938 75.910156 239.335938 Z M 75.910156 239.335938 "/>
<path style=" stroke:none;fill-rule:nonzero;fill:rgb(12.939453%,11.767578%,11.767578%);fill-opacity:1;" d="M 372.179688 15.753906 C 372.929688 17.316406 374.054688 18.566406 375.554688 19.441406 C 377.054688 20.378906 378.742188 20.816406 380.617188 20.816406 C 382.367188 20.816406 383.992188 20.441406 385.492188 19.628906 C 386.992188 18.753906 388.179688 17.566406 388.992188 15.941406 C 389.804688 14.378906 390.179688 12.566406 390.179688 10.503906 C 390.179688 8.503906 389.804688 6.753906 389.054688 5.128906 C 388.242188 3.566406 387.117188 2.316406 385.617188 1.441406 C 384.179688 0.566406 382.492188 0.128906 380.617188 0.128906 C 377.804688 0.128906 375.492188 1.066406 373.742188 2.941406 C 371.929688 4.816406 371.054688 7.441406 371.054688 10.753906 C 371.054688 12.503906 371.429688 14.191406 372.179688 15.753906 Z M 375.804688 4.378906 C 377.179688 3.066406 378.742188 2.441406 380.617188 2.441406 C 381.992188 2.441406 383.117188 2.753906 384.242188 3.441406 C 385.304688 4.066406 386.117188 5.003906 386.617188 6.253906 C 387.179688 7.441406 387.429688 8.878906 387.429688 10.503906 C 387.429688 13.066406 386.804688 15.066406 385.554688 16.441406 C 384.242188 17.878906 382.617188 18.566406 380.617188 18.566406 C 378.617188 18.566406 376.992188 17.878906 375.742188 16.503906 C 374.429688 15.128906 373.742188 13.191406 373.742188 10.816406 C 373.742188 7.816406 374.429688 5.628906 375.804688 4.378906 Z M 375.804688 4.378906 "/>
<path style=" stroke:none;fill-rule:nonzero;fill:rgb(12.939453%,11.767578%,11.767578%);fill-opacity:1;" d="M 393.273438 20.503906 L 395.710938 20.503906 L 395.710938 0.441406 L 393.273438 0.441406 Z M 393.273438 20.503906 "/>
<path style=" stroke:none;fill-rule:nonzero;fill:rgb(12.939453%,11.767578%,11.767578%);fill-opacity:1;" d="M 411.179688 20.503906 L 411.179688 0.441406 L 408.742188 0.441406 L 408.742188 7.691406 C 408.304688 7.066406 407.742188 6.566406 407.054688 6.253906 C 406.367188 5.878906 405.617188 5.691406 404.742188 5.691406 C 403.554688 5.691406 402.492188 5.941406 401.492188 6.628906 C 400.554688 7.253906 399.804688 8.128906 399.304688 9.316406 C 398.867188 10.503906 398.617188 11.816406 398.617188 13.253906 C 398.617188 14.753906 398.867188 16.066406 399.429688 17.191406 C 399.929688 18.316406 400.679688 19.191406 401.679688 19.878906 C 402.617188 20.503906 403.679688 20.816406 404.867188 20.816406 C 406.617188 20.816406 407.992188 20.066406 408.929688 18.628906 L 408.929688 20.503906 Z M 402.242188 9.066406 C 402.992188 8.128906 403.867188 7.691406 404.992188 7.691406 C 406.117188 7.691406 407.054688 8.191406 407.804688 9.128906 C 408.554688 10.003906 408.992188 11.503906 408.992188 13.503906 C 408.992188 15.253906 408.617188 16.628906 407.867188 17.503906 C 407.117188 18.378906 406.179688 18.816406 405.054688 18.816406 C 403.992188 18.816406 403.054688 18.378906 402.304688 17.441406 C 401.492188 16.503906 401.117188 15.128906 401.117188 13.253906 C 401.117188 11.378906 401.492188 9.941406 402.242188 9.066406 Z M 402.242188 9.066406 "/>
<path style=" stroke:none;fill-rule:nonzero;fill:rgb(12.939453%,11.767578%,11.767578%);fill-opacity:1;" d="M 372.804688 63.316406 C 373.992188 64.316406 375.492188 64.816406 377.304688 64.816406 C 379.492188 64.816406 381.242188 64.003906 382.554688 62.378906 C 383.617188 61.066406 384.117188 59.503906 384.117188 57.691406 C 384.117188 55.816406 383.554688 54.253906 382.304688 53.003906 C 381.117188 51.816406 379.617188 51.191406 377.929688 51.191406 C 376.617188 51.191406 375.304688 51.628906 374.117188 52.441406 L 375.179688 47.066406 L 383.179688 47.066406 L 383.179688 44.691406 L 373.242188 44.691406 L 371.304688 55.003906 L 373.617188 55.378906 C 373.992188 54.753906 374.492188 54.253906 375.117188 53.941406 C 375.742188 53.566406 376.429688 53.378906 377.242188 53.378906 C 378.554688 53.378906 379.617188 53.753906 380.367188 54.566406 C 381.117188 55.378906 381.554688 56.503906 381.554688 57.941406 C 381.554688 59.378906 381.117188 60.566406 380.304688 61.503906 C 379.492188 62.378906 378.492188 62.816406 377.304688 62.816406 C 376.304688 62.816406 375.429688 62.503906 374.742188 61.878906 C 374.054688 61.253906 373.617188 60.316406 373.429688 59.066406 L 370.867188 59.253906 C 371.054688 60.941406 371.679688 62.316406 372.804688 63.316406 Z M 372.804688 63.316406 "/>
<path style=" stroke:none;fill-rule:nonzero;fill:rgb(12.939453%,11.767578%,11.767578%);fill-opacity:1;" d="M 387.808594 64.503906 L 390.621094 64.503906 L 390.621094 61.691406 L 387.808594 61.691406 Z M 387.808594 64.503906 "/>
<path style=" stroke:none;fill-rule:nonzero;fill:rgb(12.939453%,11.767578%,11.767578%);fill-opacity:1;" d="M 396.21875 62.753906 C 397.28125 64.128906 398.78125 64.816406 400.71875 64.816406 C 402.15625 64.816406 403.40625 64.441406 404.34375 63.691406 C 405.34375 62.878906 406.03125 61.753906 406.53125 60.316406 C 407.03125 58.878906 407.28125 56.941406 407.28125 54.628906 C 407.28125 52.628906 407.09375 51.066406 406.78125 49.878906 C 406.46875 48.691406 406.09375 47.691406 405.59375 46.878906 C 405.03125 46.066406 404.34375 45.441406 403.53125 45.003906 C 402.71875 44.566406 401.78125 44.378906 400.71875 44.378906 C 399.28125 44.378906 398.09375 44.753906 397.09375 45.566406 C 396.15625 46.316406 395.40625 47.441406 394.90625 48.878906 C 394.46875 50.316406 394.21875 52.253906 394.21875 54.628906 C 394.21875 58.378906 394.90625 61.066406 396.21875 62.753906 Z M 397.96875 47.816406 C 398.65625 46.878906 399.59375 46.441406 400.71875 46.441406 C 401.84375 46.441406 402.78125 46.941406 403.59375 48.066406 C 404.34375 49.128906 404.71875 51.316406 404.71875 54.628906 C 404.71875 57.941406 404.34375 60.128906 403.59375 61.191406 C 402.78125 62.316406 401.84375 62.816406 400.71875 62.816406 C 399.59375 62.816406 398.65625 62.316406 397.90625 61.191406 C 397.09375 60.128906 396.71875 57.941406 396.71875 54.628906 C 396.71875 51.316406 397.15625 49.066406 397.96875 47.816406 Z M 397.96875 47.816406 "/>
<path style=" stroke:none;fill-rule:nonzero;fill:rgb(12.939453%,11.767578%,11.767578%);fill-opacity:1;" d="M 411.410156 53.378906 C 412.222656 54.253906 413.222656 54.691406 414.472656 54.691406 C 415.722656 54.691406 416.722656 54.253906 417.535156 53.316406 C 418.410156 52.378906 418.847656 51.128906 418.847656 49.441406 C 418.847656 47.691406 418.410156 46.378906 417.597656 45.441406 C 416.722656 44.566406 415.722656 44.128906 414.472656 44.128906 C 413.097656 44.128906 412.035156 44.628906 411.285156 45.628906 C 410.597656 46.628906 410.222656 47.816406 410.222656 49.253906 C 410.222656 51.066406 410.597656 52.441406 411.410156 53.378906 Z M 416.035156 46.628906 C 416.472656 47.128906 416.660156 48.066406 416.660156 49.316406 C 416.660156 50.753906 416.472656 51.691406 416.035156 52.191406 C 415.660156 52.753906 415.097656 53.003906 414.535156 53.003906 C 413.910156 53.003906 413.410156 52.753906 412.972656 52.191406 C 412.597656 51.691406 412.347656 50.753906 412.347656 49.503906 C 412.347656 48.066406 412.597656 47.128906 412.972656 46.628906 C 413.410156 46.066406 413.910156 45.816406 414.535156 45.816406 C 415.097656 45.816406 415.597656 46.066406 416.035156 46.628906 Z M 416.535156 65.253906 L 427.472656 44.128906 L 425.472656 44.128906 L 414.535156 65.253906 Z M 424.347656 63.878906 C 425.160156 64.753906 426.160156 65.253906 427.410156 65.253906 C 428.660156 65.253906 429.660156 64.753906 430.472656 63.878906 C 431.347656 62.941406 431.722656 61.628906 431.722656 59.941406 C 431.722656 58.191406 431.347656 56.878906 430.535156 56.003906 C 429.660156 55.066406 428.660156 54.628906 427.410156 54.628906 C 426.035156 54.628906 424.972656 55.128906 424.222656 56.128906 C 423.535156 57.128906 423.160156 58.316406 423.160156 59.816406 C 423.160156 61.628906 423.535156 62.941406 424.347656 63.878906 Z M 428.972656 57.128906 C 429.410156 57.691406 429.597656 58.566406 429.597656 59.878906 C 429.597656 61.253906 429.410156 62.191406 428.972656 62.753906 C 428.597656 63.253906 428.035156 63.503906 427.472656 63.503906 C 426.847656 63.503906 426.347656 63.253906 425.910156 62.753906 C 425.535156 62.191406 425.285156 61.316406 425.285156 60.066406 C 425.285156 58.628906 425.535156 57.691406 425.910156 57.128906 C 426.347656 56.628906 426.847656 56.378906 427.472656 56.378906 C 428.035156 56.378906 428.535156 56.628906 428.972656 57.128906 Z M 428.972656 57.128906 "/>
<path style="fill:none;stroke-width:20;stroke-linecap:butt;stroke-linejoin:miter;stroke:rgb(12.939453%,11.767578%,11.767578%);stroke-opacity:1;stroke-miterlimit:4;" d="M 2862.03125 2969.6875 L 2862.03125 3437.65625 L 4303.28125 3437.65625 " transform="matrix(0.1,0,0,-0.1,0,375)"/>
<path style=" stroke:none;fill-rule:nonzero;fill:rgb(12.939453%,11.767578%,11.767578%);fill-opacity:1;" d="M 286.203125 74.03125 C 288.421875 74.03125 290.203125 75.8125 290.203125 78.03125 C 290.203125 80.234375 288.421875 82.03125 286.203125 82.03125 C 284 82.03125 282.203125 80.234375 282.203125 78.03125 C 282.203125 75.8125 284 74.03125 286.203125 74.03125 "/>
<path style="fill:none;stroke-width:20;stroke-linecap:butt;stroke-linejoin:miter;stroke:rgb(12.939453%,11.767578%,11.767578%);stroke-opacity:1;stroke-miterlimit:4;" d="M 1340 1607.65625 L 0 1607.65625 " transform="matrix(0.1,0,0,-0.1,0,375)"/>
<path style=" stroke:none;fill-rule:nonzero;fill:rgb(12.939453%,11.767578%,11.767578%);fill-opacity:1;" d="M 130 214.234375 C 130 216.4375 131.796875 218.234375 134 218.234375 C 136.203125 218.234375 138 216.4375 138 214.234375 C 138 212.015625 136.203125 210.234375 134 210.234375 C 131.796875 210.234375 130 212.015625 130 214.234375 "/>
</g>
</svg>
